<svg version="1.1" id="Layer_1" xmlns="http://www.w3.org/2000/svg" xmlns:xlink="http://www.w3.org/1999/xlink" x="0px" y="0px"
	 width="100%" viewBox="0 0 2200 1104" enable-background="new 0 0 2200 1104" xml:space="preserve">
<path fill="#FFFFFF" opacity="1.000000" stroke="none" 
	d="
M1321.000000,1105.000000 
	C880.666809,1105.000000 440.833588,1105.000000 1.000295,1105.000000 
	C1.000197,737.000244 1.000197,369.000488 1.000098,1.000542 
	C734.332825,1.000361 1467.665649,1.000361 2200.999023,1.000181 
	C2200.999268,368.999420 2200.999268,736.998840 2200.999512,1104.999146 
	C1907.833374,1105.000000 1614.666626,1105.000000 1321.000000,1105.000000 
M86.966530,954.970764 
	C72.414558,954.970764 57.862587,954.970764 43.018093,954.970764 
	C43.018093,995.983643 43.018093,1036.065552 42.172821,1076.329956 
	C29.944309,1076.329956 17.715796,1076.329956 5.435078,1076.329956 
	C5.435078,1085.129883 5.435078,1092.718384 5.435078,1100.498535 
	C735.959839,1100.498535 1466.197754,1100.498535 2196.513184,1100.498535 
	C2196.513184,1092.411255 2196.513184,1084.681763 2196.513184,1076.254639 
	C2187.975830,1076.254639 2179.762451,1076.254639 2171.150391,1076.254639 
	C2171.150391,1073.758423 2171.150635,1071.951294 2171.150635,1070.144165 
	C2171.150879,1045.149048 2171.002441,1020.152161 2171.283203,995.160095 
	C2171.335938,990.499817 2169.787354,988.848083 2165.510742,987.998047 
	C2158.341553,986.573181 2151.276367,984.618347 2144.179688,982.837036 
	C2130.842285,979.489075 2117.513672,976.105713 2103.927246,972.672974 
	C2103.927246,955.674988 2103.927246,939.050110 2103.927246,922.380859 
	C2099.020508,920.810181 2094.425537,919.367188 2089.848877,917.869202 
	C2074.860596,912.963562 2059.878906,908.037842 2045.001465,902.168701 
	C2045.017090,866.032288 2044.964600,829.895630 2045.141357,793.759949 
	C2045.161621,789.619507 2043.714966,788.796143 2039.958496,788.827332 
	C2020.975586,788.984741 2001.988525,789.054077 1983.007935,788.790466 
	C1978.294678,788.724976 1976.802246,789.877502 1976.835815,794.790894 
	C1977.033813,823.764404 1976.880859,852.740295 1976.128418,881.655884 
	C1965.626099,878.135437 1955.123779,874.615051 1944.806763,870.159729 
	C1944.829346,787.708252 1944.851807,705.256775 1944.874390,622.805298 
	C1944.874390,622.638733 1944.859009,622.470642 1944.875977,622.305786 
	C1945.182007,619.326965 1944.144165,618.104858 1940.888794,618.433594 
	C1936.928589,618.833435 1932.899292,618.498596 1928.917480,618.754272 
	C1925.549316,618.970764 1924.102295,617.939575 1924.222046,614.300354 
	C1924.457275,607.145569 1924.441528,599.973083 1924.227295,592.817078 
	C1924.122681,589.323547 1925.293701,588.071472 1928.805542,588.230164 
	C1934.029053,588.466309 1939.271362,588.291382 1944.479004,588.291382 
	C1944.479004,581.088379 1944.479004,574.690430 1944.479004,568.331055 
	C1902.188843,568.331055 1860.295654,568.331055 1818.348022,568.331055 
	C1818.348022,575.070496 1818.348022,581.473694 1818.348022,588.304321 
	C1824.955444,588.304321 1831.227051,588.304321 1837.786621,588.304321 
	C1837.786621,598.457458 1837.786621,608.173340 1837.786621,618.490051 
	C1831.052979,618.490051 1824.658691,618.490051 1817.945312,618.490051 
	C1817.945312,675.377380 1817.945312,731.663513 1817.022095,788.063110 
	C1802.266479,788.076721 1787.510742,788.138123 1772.755371,788.085327 
	C1764.313721,788.055115 1755.872559,787.838867 1747.341797,786.867371 
	C1747.341797,710.682495 1747.341797,634.497620 1747.341797,558.349426 
	C1703.366089,558.349426 1659.817505,558.349426 1616.305908,558.349426 
	C1616.305908,565.084167 1616.305908,571.462036 1616.305908,578.258362 
	C1626.331787,578.258362 1635.932861,578.258362 1645.786499,578.258362 
	C1645.786499,590.237732 1645.786499,601.780212 1645.786499,613.921875 
	C1635.729858,613.921875 1626.007812,613.921875 1615.799316,613.921875 
	C1615.799316,650.626587 1615.799316,686.732666 1615.006958,722.978699 
	C1613.041382,723.237488 1611.074097,723.733276 1609.110596,723.718506 
	C1588.190308,723.560425 1567.270630,723.315247 1546.350586,723.111145 
	C1542.964478,723.078064 1539.577515,723.129333 1536.972290,723.120728 
	C1537.968628,721.661011 1539.535889,720.322388 1539.875122,718.723267 
	C1544.601196,696.447266 1549.178467,674.139709 1553.747681,651.830688 
	C1555.335449,644.078613 1556.801270,636.301514 1558.461426,627.827759 
	C1546.276489,627.827759 1534.865234,627.827759 1523.136230,627.827759 
	C1519.927612,529.550842 1516.738037,431.855560 1513.545898,334.082642 
	C1515.512451,333.898376 1516.525391,333.600830 1517.467773,333.749573 
	C1522.013794,334.466888 1524.163818,332.745148 1524.478149,328.009613 
	C1524.707275,324.559998 1525.792969,321.167480 1526.494263,317.748962 
	C1529.927856,301.011536 1533.360596,284.273926 1536.918213,266.928711 
	C1528.149658,266.928711 1519.895386,266.928711 1511.530029,266.928711 
	C1511.347534,265.802460 1511.174561,265.173096 1511.152954,264.538574 
	C1510.468506,244.411896 1509.754150,224.286102 1509.140381,204.157227 
	C1508.602539,186.516693 1508.100342,168.874115 1507.777344,151.228867 
	C1507.715088,147.829834 1506.416138,146.872009 1503.288818,147.082169 
	C1500.348999,147.279709 1497.385742,147.124512 1494.186646,147.124512 
	C1494.186646,120.810493 1494.186646,95.083603 1494.186646,69.330933 
	C1496.204102,68.959496 1497.926758,68.642349 1499.876465,68.283371 
	C1499.876465,62.668964 1499.638916,57.335617 1499.950562,52.034546 
	C1500.205933,47.691330 1499.715820,44.428955 1493.715820,44.990192 
	C1493.715820,33.026535 1493.715820,21.458023 1493.715820,9.289826 
	C1490.320923,9.289826 1487.506470,9.520864 1484.745117,9.236195 
	C1480.499634,8.798519 1478.639160,10.077575 1479.032104,14.704034 
	C1479.439697,19.502520 1479.123657,24.362482 1479.123779,29.195551 
	C1479.124023,34.452755 1479.123779,39.709961 1479.123779,44.967163 
	C1478.641602,44.703411 1478.159546,44.439659 1477.677368,44.175911 
	C1476.164307,45.469795 1473.437866,46.681751 1473.343994,48.071457 
	C1472.888428,54.820271 1473.138306,61.616714 1473.138306,68.361008 
	C1475.464722,68.793625 1477.180054,69.112595 1478.825195,69.418510 
	C1478.825195,95.369057 1478.825195,120.964508 1478.825195,147.136505 
	C1474.459717,147.136505 1470.379517,147.136505 1465.713623,147.136505 
	C1464.387329,187.350494 1463.079224,227.012161 1461.753296,267.214722 
	C1452.949829,267.214722 1444.742310,267.214722 1436.269165,267.214722 
	C1440.261353,286.701050 1444.175415,305.577484 1447.979370,324.476044 
	C1449.694092,332.994781 1449.594971,333.010315 1458.088013,333.982025 
	C1458.367310,334.013916 1458.612671,334.340515 1458.293579,334.109314 
	C1458.293579,345.658539 1458.552612,356.778595 1458.244019,367.882874 
	C1457.384033,398.826904 1456.290405,429.764404 1455.285522,460.704376 
	C1454.626343,480.999603 1453.919800,501.293365 1453.308350,521.590027 
	C1452.460938,549.712524 1451.718506,577.838196 1450.850342,605.960083 
	C1450.627075,613.193909 1450.100708,620.418396 1449.692383,628.042847 
	C1437.856201,628.042847 1426.579956,628.042847 1415.058838,628.042847 
	C1415.749146,633.731506 1416.383057,638.954773 1416.737549,643.401672 
	C1416.458374,642.797791 1416.171875,642.197144 1415.901001,641.589600 
	C1394.851807,594.406494 1333.879028,584.285950 1299.137939,622.530579 
	C1293.001343,629.285828 1288.718262,637.724854 1282.979980,646.279846 
	C1270.976685,646.279846 1257.727539,646.279846 1244.495361,646.279846 
	C1244.495361,656.799072 1244.495361,666.866699 1244.495361,677.098999 
	C1248.056519,677.414734 1251.290405,677.701477 1254.849609,678.017029 
	C1254.849609,683.924133 1254.855957,689.400269 1254.848633,694.876404 
	C1254.795654,734.192932 1254.740112,773.509460 1253.798218,812.914246 
	C1236.876099,812.932556 1219.953979,812.950806 1202.910400,812.042236 
	C1202.910400,730.192932 1202.910400,648.343567 1202.910400,566.487366 
	C1194.501587,566.487366 1186.935059,566.487366 1179.000000,566.487366 
	C1179.000000,568.656433 1179.000000,570.463989 1179.000000,572.271484 
	C1179.000000,600.747559 1179.025024,629.223633 1178.941772,657.699463 
	C1178.936523,659.518250 1178.685791,662.199463 1177.528809,662.994446 
	C1173.599487,665.694519 1169.211792,667.727600 1165.072021,669.078369 
	C1165.072021,593.877563 1165.072021,518.676758 1165.072021,443.049866 
	C1162.572144,443.049866 1160.932983,443.049866 1159.293945,443.049866 
	C1107.488525,443.049835 1055.682861,443.114319 1003.877991,442.942871 
	C999.075073,442.926941 997.788513,444.216766 997.794922,449.023407 
	C997.933838,553.966736 997.903625,658.910278 996.996704,764.043579 
	C982.378113,764.003052 967.759460,763.962585 953.132446,762.996216 
	C953.132446,660.432007 953.132446,557.867859 953.132446,454.806091 
	C944.716309,454.806091 937.131226,454.806091 928.958862,454.806091 
	C928.958862,440.582733 928.958862,426.848572 928.958862,412.710510 
	C923.383484,412.710510 918.395691,412.479340 913.440552,412.782410 
	C909.349609,413.032593 907.880798,411.745514 908.033325,407.490997 
	C908.341614,398.890778 908.125183,390.271790 908.125183,381.067444 
	C899.280823,381.067444 891.047546,381.067444 882.146240,381.067444 
	C882.146240,345.765320 882.146240,311.063782 882.146240,276.321655 
	C877.702148,276.321655 873.950378,276.321655 869.542847,276.321655 
	C869.542847,311.348816 869.542847,346.060791 869.542847,381.361023 
	C860.649109,381.361023 852.410461,381.361023 843.875732,381.361023 
	C843.875732,390.609955 843.707642,399.268616 843.954041,407.915497 
	C844.060425,411.649109 842.893555,412.965179 839.142273,412.775543 
	C833.904541,412.510803 828.643433,412.708832 822.834717,412.708832 
	C822.834717,427.221100 822.834717,440.955139 822.834717,455.271423 
	C814.543335,455.271423 806.814758,455.271423 798.875610,455.271423 
	C798.875610,457.864990 798.875549,459.857635 798.875549,461.850281 
	C798.875549,537.175964 798.882385,612.501587 798.870789,687.827271 
	C798.867859,706.824219 798.806335,725.821167 797.880737,744.951965 
	C774.281982,744.942810 750.683167,744.933655 727.020813,744.114197 
	C727.431396,741.043701 726.457764,738.835022 723.764343,736.946533 
	C720.233398,734.470581 717.401611,730.923828 713.735657,728.728638 
	C704.963440,723.475891 700.861938,716.324341 702.878296,706.077209 
	C704.500061,697.835510 700.998657,692.233704 694.135925,687.953979 
	C689.566833,685.104736 686.776611,681.036499 684.978821,675.554749 
	C680.043579,660.505920 669.982239,650.117188 654.080139,646.623840 
	C649.602173,645.640198 644.824219,646.021973 640.108032,644.878479 
	C640.108032,615.680542 640.108032,586.482605 640.108032,557.384033 
	C602.205872,557.384033 565.333374,557.384033 528.028564,557.384033 
	C528.028564,569.548584 528.028564,581.336487 527.206543,593.267273 
	C521.393677,593.275391 515.580811,593.290039 509.767914,593.290466 
	C479.790039,593.292847 449.812134,593.291626 419.834259,593.291626 
	C418.051514,593.291626 416.268738,593.291626 414.395630,593.291626 
	C414.395630,597.459778 414.395630,600.995667 414.395630,605.014221 
	C423.032104,605.014221 431.279663,605.014221 439.671936,605.014221 
	C439.671936,609.569153 439.671936,613.627197 439.671936,618.339417 
	C430.982300,618.339417 422.603577,618.339417 413.942719,618.339417 
	C413.942719,681.275940 413.942719,743.554321 413.319031,805.642761 
	C398.148071,787.981140 382.977112,770.319458 367.453064,752.246765 
	C345.033203,778.377747 322.876953,804.201538 300.507629,830.273621 
	C278.055176,804.095703 255.964249,778.339233 233.867752,752.576294 
	C233.111725,753.105896 232.629974,753.317810 232.320877,753.677917 
	C210.520645,779.075195 188.699814,804.455200 167.029526,829.963074 
	C165.691376,831.538208 164.992172,834.116394 164.944763,836.249084 
	C164.726303,846.073242 164.844574,855.904907 163.938507,865.891113 
	C134.755615,865.891113 105.572708,865.891113 76.476852,865.891113 
	C76.476852,872.463379 76.476852,878.041443 76.476852,884.107788 
	C80.399818,884.107788 83.981148,884.107788 87.549942,884.107788 
	C87.549942,895.624878 87.549942,906.633240 87.549942,917.679810 
	C83.537682,917.855469 79.971886,918.011475 76.495483,918.163635 
	C76.495483,924.676575 76.495483,930.574036 76.495483,937.000793 
	C80.428810,937.000793 84.002922,937.000793 87.883316,937.000793 
	C87.883316,943.325256 87.883316,949.111816 86.966530,954.970764 
z"/>
<path fill="#797979" opacity="1.000000" stroke="none" 
	d="
M953.140869,763.922058 
	C967.759460,763.962585 982.378113,764.003052 997.919800,764.033325 
	C1003.438721,764.023071 1008.034546,764.023071 1013.167603,764.023071 
	C1013.167603,778.041931 1013.167603,791.276672 1013.167603,804.978333 
	C1034.799927,804.978333 1055.884888,804.978333 1077.441162,804.990417 
	C1084.243042,805.005920 1090.573853,805.007019 1096.904541,805.013367 
	C1103.768921,805.020264 1103.959839,805.187744 1103.965942,811.994995 
	C1103.980591,828.487610 1104.047241,844.980835 1103.908936,861.472290 
	C1103.880493,864.863281 1104.781372,866.241089 1108.384399,866.097778 
	C1114.704834,865.846375 1121.046631,866.162292 1127.371460,865.973633 
	C1130.650391,865.875854 1132.224854,866.625977 1132.089355,870.350891 
	C1131.828979,877.504883 1131.866577,884.679382 1132.077148,891.836609 
	C1132.177002,895.230530 1130.842651,896.112427 1127.684692,896.026306 
	C1121.025879,895.844666 1114.357056,896.064819 1107.696045,895.930481 
	C1104.878052,895.873718 1103.888428,896.917725 1103.930176,899.715027 
	C1104.051758,907.876221 1104.092407,916.042908 1103.914917,924.202087 
	C1103.843994,927.461365 1105.303955,928.098450 1108.131958,928.040649 
	C1114.626343,927.907959 1121.128296,928.117981 1127.620972,927.948669 
	C1130.694092,927.868652 1132.192261,928.572571 1132.079834,932.059204 
	C1131.854614,939.048828 1131.893188,946.053772 1132.068115,953.046265 
	C1132.145630,956.143494 1130.996582,957.110229 1127.996216,957.036987 
	C1121.336548,956.874329 1114.667603,957.097351 1108.007690,956.939026 
	C1105.028320,956.868225 1103.851562,957.797485 1103.916992,960.913940 
	C1104.084473,968.906860 1104.111694,976.909180 1103.906982,984.900330 
	C1103.819458,988.320068 1105.190674,989.152283 1108.322510,989.065857 
	C1114.814697,988.886658 1121.319946,989.159546 1127.810425,988.952698 
	C1131.116943,988.847290 1132.163574,990.023438 1132.073364,993.268616 
	C1131.878662,1000.260132 1131.925293,1007.262329 1132.055786,1014.256775 
	C1132.107666,1017.036987 1131.155762,1018.120178 1128.315063,1018.056519 
	C1121.987793,1017.914856 1115.645142,1018.228210 1109.328125,1017.936829 
	C1105.327637,1017.752258 1103.804443,1018.784424 1103.872070,1023.122620 
	C1104.121338,1039.111572 1104.104370,1055.108643 1103.878662,1071.098267 
	C1103.821289,1075.155273 1105.146729,1076.152710 1109.008667,1076.108398 
	C1125.332642,1075.920776 1141.659790,1076.029175 1157.985840,1076.029297 
	C1170.498047,1076.029419 1170.420410,1076.031372 1170.087524,1063.611084 
	C1170.013428,1060.848755 1169.090088,1059.578369 1166.439087,1058.608032 
	C1153.379639,1053.828125 1147.816284,1040.928101 1152.917847,1027.808716 
	C1156.770386,1017.901550 1166.134888,1012.856750 1178.534546,1014.008545 
	C1187.150879,1014.808960 1195.564331,1022.744141 1196.965576,1031.810669 
	C1197.594482,1035.879150 1197.527100,1040.055298 1197.779907,1044.253540 
	C1198.843506,1043.668823 1199.972778,1042.996216 1201.145874,1042.411255 
	C1208.275024,1038.856323 1216.303955,1041.280029 1220.048706,1048.098633 
	C1223.662598,1054.679077 1221.326294,1063.470947 1214.134521,1066.707642 
	C1209.194946,1068.930664 1209.526611,1071.765137 1210.721191,1076.019165 
	C1224.522095,1076.019165 1238.159668,1076.092651 1251.792847,1075.878052 
	C1252.870605,1075.861084 1253.922607,1073.849365 1254.966919,1072.746094 
	C1255.051147,1072.657227 1254.983765,1072.423218 1254.983643,1072.256592 
	C1254.936035,1024.446533 1254.888184,976.636475 1254.866821,928.373657 
	C1254.899170,905.995422 1254.935181,884.069885 1254.901367,862.144531 
	C1254.875854,845.704956 1254.760498,829.265503 1254.685303,812.825989 
	C1254.740112,773.509460 1254.795654,734.192932 1254.848633,694.876404 
	C1254.855957,689.400269 1254.849609,683.924133 1254.849609,678.017029 
	C1251.290405,677.701477 1248.056519,677.414734 1244.495361,677.098999 
	C1244.495361,666.866699 1244.495361,656.799072 1244.495361,646.279846 
	C1257.727539,646.279846 1270.976685,646.279846 1282.979980,646.279846 
	C1288.718262,637.724854 1293.001343,629.285828 1299.137939,622.530579 
	C1333.879028,584.285950 1394.851807,594.406494 1415.901001,641.589600 
	C1416.171875,642.197144 1416.458374,642.797791 1416.871826,644.105469 
	C1418.486450,645.205505 1419.963623,645.930542 1421.447754,645.945007 
	C1431.776123,646.045654 1442.111450,646.193787 1452.432739,645.905579 
	C1456.689819,645.786682 1458.387085,646.763550 1458.120117,651.374329 
	C1457.716187,658.348267 1457.781982,665.373474 1458.101562,672.356140 
	C1458.294800,676.579102 1457.290039,678.770142 1452.667603,677.981873 
	C1448.880127,677.335938 1447.914673,679.078491 1447.917114,682.747925 
	C1448.001099,812.197937 1448.005859,941.648071 1447.902344,1071.098022 
	C1447.899048,1075.142212 1449.152466,1076.146851 1453.018188,1076.108276 
	C1471.009399,1075.928589 1489.004639,1075.923706 1506.995728,1076.111816 
	C1510.905762,1076.152588 1512.138550,1075.080322 1512.089478,1071.074463 
	C1511.879028,1053.916992 1512.076050,1036.754883 1511.932861,1019.596008 
	C1511.905640,1016.347717 1512.800781,1014.417664 1515.853394,1012.989929 
	C1520.967163,1010.598145 1525.999390,1007.952942 1530.761719,1004.934570 
	C1532.329346,1003.940979 1533.825073,1001.484131 1533.870239,999.659546 
	C1534.146729,988.504456 1533.996826,977.338745 1534.343262,966.118164 
	C1536.237793,965.095459 1537.819336,964.190796 1539.312012,963.157959 
	C1560.030151,948.822876 1580.681152,934.389771 1601.472778,920.161987 
	C1609.646851,914.568481 1606.567383,914.664185 1615.173340,920.359680 
	C1636.679321,935.350830 1658.007935,950.037231 1679.203857,964.912659 
	C1680.646240,965.924866 1681.827393,968.337952 1681.877075,970.134216 
	C1682.139404,979.624146 1682.109497,989.127197 1681.936523,998.621216 
	C1681.881348,1001.648499 1682.746826,1003.626160 1685.481445,1005.038391 
	C1690.500244,1007.630249 1695.308716,1010.643616 1700.393311,1013.089600 
	C1703.894775,1014.774109 1705.095215,1017.076111 1705.050293,1020.929565 
	C1704.861694,1037.089355 1704.969116,1053.252441 1704.971558,1069.414307 
	C1704.972656,1076.021240 1704.976685,1076.026001 1711.323486,1076.028198 
	C1722.486816,1076.031982 1733.650269,1076.029297 1744.813599,1076.029297 
	C1755.020630,1076.029297 1754.872925,1076.026367 1755.076904,1065.762695 
	C1755.152344,1061.970947 1754.348389,1059.965332 1750.342529,1058.466675 
	C1737.447388,1053.642212 1732.060547,1040.220825 1737.321777,1027.464722 
	C1740.904663,1018.777710 1751.850220,1012.113281 1760.516968,1013.341553 
	C1770.840088,1014.804626 1780.104126,1022.465271 1781.667725,1031.871582 
	C1783.308594,1041.741943 1781.073608,1051.789185 1769.934204,1056.999634 
	C1763.010254,1060.238159 1762.314575,1064.496094 1762.966309,1070.531250 
	C1763.001953,1070.860718 1763.010986,1071.202637 1762.965576,1071.529541 
	C1762.484131,1074.998047 1763.930054,1076.112183 1767.440552,1076.095337 
	C1793.432251,1075.971069 1819.425049,1075.979492 1845.416870,1076.088135 
	C1848.782227,1076.102173 1850.271851,1075.264526 1850.050171,1071.631958 
	C1849.776855,1067.150024 1849.775635,1062.625366 1850.059326,1058.144653 
	C1850.245605,1055.200317 1848.983887,1054.023315 1846.431152,1053.208740 
	C1840.141602,1051.201660 1834.847290,1047.840698 1830.763062,1042.396118 
	C1822.310791,1031.129272 1822.915527,1014.184082 1832.744873,1003.845764 
	C1842.747681,993.325317 1859.557373,991.843445 1870.707397,999.343323 
	C1874.887329,1002.154968 1878.210815,1006.240112 1882.339355,1010.135986 
	C1882.339355,957.349548 1882.339355,904.954590 1882.339355,852.172119 
	C1884.709595,852.771362 1886.646484,853.153748 1888.514893,853.750854 
	C1900.696411,857.643677 1912.840454,861.655640 1925.043823,865.477905 
	C1931.520752,867.506531 1938.092529,869.232239 1944.621460,871.094666 
	C1955.123779,874.615051 1965.626099,878.135437 1976.854736,881.829285 
	C1985.464600,884.549805 1993.328247,887.160645 2001.235840,889.630188 
	C2015.775024,894.170654 2030.340210,898.627869 2044.894531,903.119812 
	C2059.878906,908.037842 2074.860596,912.963562 2089.848877,917.869202 
	C2094.425537,919.367188 2099.020508,920.810181 2103.927246,922.380859 
	C2103.927246,939.050110 2103.927246,955.674988 2103.927246,972.672974 
	C2117.513672,976.105713 2130.842285,979.489075 2144.179688,982.837036 
	C2151.276367,984.618347 2158.341553,986.573181 2165.510742,987.998047 
	C2169.787354,988.848083 2171.335938,990.499817 2171.283203,995.160095 
	C2171.002441,1020.152161 2171.150879,1045.149048 2171.150635,1070.144165 
	C2171.150635,1071.951294 2171.150391,1073.758423 2171.150391,1076.254639 
	C2179.762451,1076.254639 2187.975830,1076.254639 2196.513184,1076.254639 
	C2196.513184,1084.681763 2196.513184,1092.411255 2196.513184,1100.498535 
	C1466.197754,1100.498535 735.959839,1100.498535 5.435078,1100.498535 
	C5.435078,1092.718384 5.435078,1085.129883 5.435078,1076.329956 
	C17.715796,1076.329956 29.944309,1076.329956 42.933575,1076.460938 
	C58.482613,1076.406738 73.270897,1076.221558 88.524109,1076.035034 
	C112.308601,1076.032227 135.629501,1075.900513 158.946640,1076.137329 
	C163.683273,1076.185425 165.109909,1074.990601 165.094711,1070.108154 
	C164.922638,1014.807983 164.994324,959.507019 164.979004,904.206299 
	C164.975464,891.382141 164.889908,878.558044 164.842072,865.733887 
	C164.844574,855.904907 164.726303,846.073242 164.944763,836.249084 
	C164.992172,834.116394 165.691376,831.538208 167.029526,829.963074 
	C188.699814,804.455200 210.520645,779.075195 232.320877,753.677917 
	C232.629974,753.317810 233.111725,753.105896 233.867752,752.576294 
	C255.964249,778.339233 278.055176,804.095703 300.507629,830.273621 
	C322.876953,804.201538 345.033203,778.377747 367.453064,752.246765 
	C382.977112,770.319458 398.148071,787.981140 413.763855,806.059814 
	C418.740082,811.767029 422.973602,817.354248 427.876953,822.273804 
	C434.268555,828.686707 436.277802,835.853271 436.229034,844.988464 
	C435.842926,917.290894 436.004547,989.596375 436.037659,1061.900879 
	C436.039703,1066.356812 434.689056,1072.728638 437.002106,1074.768921 
	C439.710907,1077.158203 445.744720,1075.941406 450.339600,1075.994873 
	C460.033600,1076.107788 459.893188,1076.026367 460.098969,1066.258667 
	C460.179871,1062.418457 459.632294,1059.790283 455.480835,1058.183228 
	C445.122498,1054.173340 439.148865,1043.216919 441.147858,1033.020996 
	C443.393433,1021.567322 454.240387,1013.117920 464.427338,1013.787415 
	C476.516724,1014.581970 484.400421,1020.278076 487.465607,1033.196289 
	C489.030243,1039.790405 486.120850,1053.160767 475.313690,1057.058472 
	C468.362152,1059.565674 467.129425,1063.633179 468.005066,1069.778564 
	C468.074860,1070.268433 468.077057,1070.786133 468.004364,1071.275269 
	C467.453522,1074.980591 468.955536,1076.164673 472.723541,1076.109253 
	C486.548370,1075.905884 500.381256,1075.860840 514.203857,1076.129272 
	C518.432312,1076.211426 519.112122,1074.570557 519.093933,1070.885132 
	C518.968933,1045.562500 519.031921,1020.239014 519.016663,994.915771 
	C519.016052,993.856262 518.840271,992.796875 518.692749,991.138062 
	C516.376953,992.579651 514.646423,993.656921 512.441772,995.029297 
	C511.974335,989.096375 510.785889,984.198486 516.847107,980.200684 
	C523.413879,975.869568 529.000732,970.052734 535.329712,964.783813 
	C543.723083,958.092102 551.801514,951.500366 560.233459,944.963989 
	C561.418152,945.541931 562.316345,945.982544 563.070496,946.599304 
	C576.546021,957.619690 589.935913,968.746338 603.497742,979.659302 
	C609.427429,984.430969 610.343628,986.625427 608.073547,994.833252 
	C606.243835,993.570923 604.501892,992.369202 601.999756,990.643005 
	C601.999756,1018.872131 601.968262,1046.008423 602.128967,1073.143555 
	C602.134644,1074.107300 604.028320,1075.872314 605.068298,1075.892212 
	C615.728516,1076.096558 626.395264,1076.082031 637.056519,1075.907227 
	C638.039795,1075.890991 639.810059,1074.373657 639.839172,1073.507080 
	C640.070007,1066.623535 639.967712,1059.728882 639.967712,1052.206909 
	C637.036194,1054.259399 634.801514,1055.823975 631.991943,1057.791016 
	C631.991943,1053.630005 631.780518,1050.160156 632.091187,1046.737793 
	C632.223755,1045.277832 633.102844,1043.500366 634.225769,1042.574097 
	C648.548462,1030.760376 662.990051,1019.091125 677.352478,1007.325256 
	C678.416260,1006.453857 679.828430,1005.139282 679.852722,1004.004333 
	C680.054382,994.607971 679.966919,985.205383 679.966919,974.847839 
	C677.047058,976.882996 674.982300,978.322144 672.917542,979.761292 
	C673.102844,974.484802 669.585999,968.989807 674.795044,964.703857 
	C677.357239,962.595764 679.872864,960.430847 682.438782,958.327393 
	C697.297729,946.146484 712.165405,933.976318 727.391296,921.844849 
	C728.888062,922.512695 730.151672,922.981140 731.140076,923.787109 
	C746.453552,936.274048 761.364563,949.296448 777.185120,961.100769 
	C784.218994,966.348938 784.837219,972.083496 783.642578,979.914490 
	C781.040405,978.134521 778.849060,976.635620 776.002808,974.688782 
	C776.002808,984.716797 775.907349,993.834961 776.105591,1002.946716 
	C776.135376,1004.316101 777.241821,1006.005249 778.355713,1006.951233 
	C784.808777,1012.431152 791.413330,1017.732727 798.169434,1023.354370 
	C805.175049,1029.165161 812.049683,1034.631714 818.736816,1040.318604 
	C820.758728,1042.038208 823.179871,1044.133301 823.781494,1046.476562 
	C824.642883,1049.831543 824.001038,1053.572510 824.001038,1057.711548 
	C821.156738,1055.683716 818.947266,1054.108521 816.014648,1052.017700 
	C816.014648,1059.022949 816.204468,1065.130981 815.943298,1071.219727 
	C815.786865,1074.866577 816.824097,1076.211670 820.668823,1076.111694 
	C830.322998,1075.860352 839.988159,1076.029053 849.648865,1076.029297 
	C853.588257,1076.029419 857.527710,1076.029297 861.479492,1076.029297 
	C862.403320,1071.587402 862.638245,1068.739014 857.923462,1066.714233 
	C852.942261,1064.575073 850.333374,1059.718872 850.260986,1054.194214 
	C850.186340,1048.490234 855.761780,1041.879150 860.750427,1041.049438 
	C868.270203,1039.798584 875.555237,1043.395996 877.612488,1049.375977 
	C879.872253,1055.944702 877.208069,1064.043091 870.850098,1066.852539 
	C866.068665,1068.965332 866.721252,1071.882202 867.540588,1076.029175 
	C876.686279,1076.029175 885.643616,1076.108032 894.597534,1075.968262 
	C896.587891,1075.937378 900.212402,1077.290527 899.792664,1073.474487 
	C899.380188,1069.724121 902.827759,1064.896118 896.766296,1062.247192 
	C893.250793,1060.710693 889.826721,1058.301025 887.221008,1055.488159 
	C882.128784,1049.990967 881.983337,1040.228638 886.207642,1033.631470 
	C890.736450,1026.558594 899.352539,1022.390625 906.698669,1024.969116 
	C911.887146,1026.790161 916.472473,1030.329834 921.012329,1032.922485 
	C921.012329,1032.067261 921.012268,1030.239624 921.012268,1028.411865 
	C921.012329,956.622681 921.012390,884.833435 921.012390,813.044250 
	C921.012390,811.711731 921.123596,810.368286 920.992065,809.048889 
	C920.695801,806.076416 921.797729,804.800476 924.928711,804.964172 
	C928.915344,805.172546 932.968750,804.625488 936.907104,805.108154 
	C942.265015,805.764832 943.358643,803.526428 943.132080,798.661926 
	C942.752747,790.517944 943.028381,782.343445 943.028381,774.181824 
	C943.028381,764.211243 943.028320,764.211243 953.140869,763.922058 
M380.725159,928.087036 
	C380.739319,921.433289 380.926239,914.771667 380.622986,908.132385 
	C380.561798,906.792297 378.707367,904.485657 377.572235,904.417664 
	C371.439514,904.050415 365.270020,904.153992 359.121155,904.347351 
	C358.163452,904.377502 356.452515,905.684204 356.433167,906.435181 
	C356.233734,914.183594 356.310669,921.939148 356.310669,930.013672 
	C360.823151,930.013672 364.640228,930.147888 368.443634,929.977112 
	C372.483917,929.795654 376.511230,929.325012 380.725159,928.087036 
M298.526917,930.013672 
	C303.115784,930.013672 307.704651,930.013672 312.758484,930.013672 
	C312.758484,922.043518 312.899414,914.759521 312.610596,907.492615 
	C312.565918,906.367920 310.598419,904.446899 309.441223,904.385681 
	C303.474182,904.070007 297.477234,904.126099 291.501495,904.345093 
	C290.408356,904.385193 288.462585,905.751343 288.438385,906.551575 
	C288.204865,914.273438 288.298370,922.005188 288.298370,930.013733 
	C291.917236,930.013733 294.730560,930.013733 298.526917,930.013672 
M243.725067,904.658630 
	C236.924194,904.520935 230.122070,904.277649 223.323822,904.359009 
	C222.300034,904.371277 220.440033,905.873352 220.414078,906.730103 
	C220.183990,914.324890 220.280380,921.929626 220.280380,929.570312 
	C228.744141,929.570312 236.590042,929.570312 244.349884,929.570312 
	C244.349884,921.179932 244.349884,913.233826 243.725067,904.658630 
M1859.029175,1070.329834 
	C1859.110474,1072.095459 1859.191772,1073.861084 1859.334839,1076.966309 
	C1865.585571,1076.966309 1871.340942,1076.955200 1877.096313,1076.970581 
	C1880.542236,1076.979736 1882.203491,1075.592285 1882.074829,1071.849243 
	C1881.852417,1065.373657 1882.014160,1058.885132 1882.014526,1052.401978 
	C1882.014771,1047.918823 1882.014648,1043.435547 1882.014648,1039.412476 
	C1877.644531,1043.338745 1873.991577,1049.293823 1869.244263,1050.355469 
	C1857.695190,1052.938354 1858.384521,1060.520996 1859.027832,1068.876709 
	C1859.040527,1069.041992 1859.029297,1069.208984 1859.029175,1070.329834 
M223.751724,981.878784 
	C222.587524,982.671082 220.442123,983.428528 220.412582,984.261047 
	C220.149124,991.686523 220.259140,999.125305 220.259140,1006.750000 
	C228.655457,1006.750000 236.395554,1006.750000 244.417908,1006.750000 
	C244.417908,998.443970 244.417908,990.403564 244.417908,981.877136 
	C237.615494,981.877136 231.156891,981.877136 223.751724,981.878784 
M288.230042,989.589478 
	C288.230042,995.201355 288.230042,1000.813232 288.230042,1006.621155 
	C296.658813,1006.621155 304.502350,1006.621155 312.470795,1006.621155 
	C312.470795,998.317505 312.470795,990.409241 312.470795,982.297852 
	C304.330017,982.297852 296.495087,982.297852 288.230469,982.297852 
	C288.230469,984.678589 288.230469,986.649292 288.230042,989.589478 
M380.769958,993.512329 
	C380.769958,989.756470 380.769958,986.000610 380.769958,982.226868 
	C372.225708,982.226868 364.494202,982.226868 356.630188,982.226868 
	C356.630188,990.617188 356.630188,998.653381 356.630188,1006.682861 
	C364.774078,1006.682861 372.512848,1006.682861 380.769501,1006.682861 
	C380.769501,1002.410828 380.769501,998.455261 380.769958,993.512329 
M1294.481323,960.991821 
	C1291.070923,960.991821 1287.660522,960.991821 1284.366943,960.991821 
	C1284.366943,971.382446 1284.366943,980.942200 1284.366943,990.552124 
	C1290.970825,990.552124 1297.194946,990.552124 1303.600586,990.552124 
	C1303.600586,980.645874 1303.600586,971.091125 1303.600586,960.991821 
	C1300.691162,960.991821 1298.075439,960.991821 1294.481323,960.991821 
M1355.377441,960.989319 
	C1350.808105,960.989319 1346.238770,960.989319 1341.552002,960.989319 
	C1341.552002,971.275879 1341.552002,980.808167 1341.552002,990.604980 
	C1348.066406,990.604980 1354.263062,990.604980 1360.734863,990.604980 
	C1360.734863,980.768555 1360.734863,971.229553 1360.734863,961.312317 
	C1359.204834,961.199890 1357.773071,961.094666 1355.377441,960.989319 
M1408.508911,990.904602 
	C1411.767334,990.904602 1415.025757,990.904602 1418.464966,990.904602 
	C1418.464966,980.646240 1418.464966,971.102417 1418.464966,961.413208 
	C1411.820068,961.413208 1405.481201,961.413208 1399.269287,961.413208 
	C1399.269287,971.386108 1399.269287,980.931396 1399.269287,990.904419 
	C1402.275269,990.904419 1404.903687,990.904419 1408.508911,990.904602 
M1418.529663,921.992310 
	C1418.529663,912.452820 1418.529663,902.913391 1418.529663,893.529785 
	C1411.615845,893.529785 1405.399658,893.529785 1399.255615,893.529785 
	C1399.255615,903.517090 1399.255615,913.065674 1399.255615,922.691895 
	C1405.736572,922.691895 1411.843262,922.691895 1418.529663,921.992310 
M1296.429810,923.008301 
	C1298.831299,923.008301 1301.232788,923.008301 1303.489014,923.008301 
	C1303.489014,912.556213 1303.489014,903.002747 1303.489014,893.466370 
	C1296.840942,893.466370 1290.612061,893.466370 1284.299316,893.466370 
	C1284.299316,903.399719 1284.299316,912.962036 1284.299316,923.008240 
	C1288.215576,923.008240 1291.837769,923.008240 1296.429810,923.008301 
M1294.482422,719.900818 
	C1297.426636,719.900818 1300.370728,719.900818 1303.481445,719.900818 
	C1303.481445,709.626404 1303.481445,699.950073 1303.481445,690.360474 
	C1296.817505,690.360474 1290.581177,690.360474 1284.322144,690.360474 
	C1284.322144,700.291443 1284.322144,709.850464 1284.322144,719.900879 
	C1287.600830,719.900879 1290.556274,719.900879 1294.482422,719.900818 
M1361.010498,714.354004 
	C1361.010498,706.309204 1361.010498,698.264404 1361.010498,690.426025 
	C1353.961792,690.426025 1347.765869,690.426025 1341.604492,690.426025 
	C1341.604492,700.399109 1341.604492,709.931702 1341.604492,719.550537 
	C1348.179565,719.550537 1354.380493,719.550537 1360.762817,719.550537 
	C1360.858521,717.912598 1360.934448,716.612854 1361.010498,714.354004 
M1398.880005,705.498535 
	C1398.880005,710.100159 1398.880005,714.701782 1398.880005,719.454224 
	C1405.792969,719.454224 1412.116333,719.454224 1418.388550,719.454224 
	C1418.388550,709.453003 1418.388550,699.906799 1418.388550,690.326355 
	C1411.781982,690.326355 1405.557739,690.326355 1398.879761,690.326355 
	C1398.879761,695.271118 1398.879761,699.886108 1398.880005,705.498535 
M1289.611938,757.882446 
	C1287.857178,757.961304 1286.102417,758.040161 1284.334717,758.119629 
	C1284.334717,768.194702 1284.334717,777.729431 1284.334717,787.445923 
	C1290.897827,787.445923 1297.114624,787.445923 1303.449097,787.445923 
	C1303.449097,777.477051 1303.449097,767.829285 1303.449097,757.882141 
	C1298.859619,757.882141 1294.719727,757.882141 1289.611938,757.882446 
M1303.901001,845.458008 
	C1303.901001,838.881897 1303.901001,832.305786 1303.901001,825.546875 
	C1296.974976,825.546875 1290.756348,825.546875 1284.410889,825.546875 
	C1284.410889,835.521729 1284.410889,845.184692 1284.410889,854.719910 
	C1291.055786,854.719910 1297.273438,854.719910 1303.900879,854.719910 
	C1303.900879,851.698120 1303.900879,849.070557 1303.901001,845.458008 
M1354.399658,893.095398 
	C1350.161377,893.095398 1345.923218,893.095398 1341.542725,893.095398 
	C1341.542725,903.394470 1341.542725,912.928406 1341.542725,922.735168 
	C1348.052734,922.735168 1354.254883,922.735168 1360.628540,922.735168 
	C1360.628540,912.802551 1360.628540,903.148621 1360.628540,893.095581 
	C1358.624390,893.095581 1356.991577,893.095581 1354.399658,893.095398 
M1413.349121,757.877075 
	C1408.607178,757.877075 1403.865112,757.877075 1399.133057,757.877075 
	C1399.133057,768.220337 1399.133057,777.653564 1399.133057,787.728577 
	C1404.975342,787.728577 1410.591431,787.911133 1416.172241,787.550781 
	C1417.114624,787.489929 1418.605347,785.112244 1418.650635,783.764954 
	C1418.896484,776.453430 1418.602051,769.123901 1418.839355,761.811829 
	C1418.956421,758.202454 1417.243042,757.540527 1413.349121,757.877075 
M1361.013550,764.586182 
	C1361.013550,762.491699 1361.013550,760.397278 1361.013550,758.261597 
	C1354.108887,758.261597 1347.910645,758.261597 1341.249878,758.261597 
	C1341.249878,767.406860 1341.182861,776.177429 1341.347900,784.943604 
	C1341.365479,785.874084 1342.712280,787.542664 1343.493530,787.573547 
	C1349.227051,787.799683 1354.973511,787.695618 1361.013550,787.695618 
	C1361.013550,779.826477 1361.013550,772.697693 1361.013550,764.586182 
M1413.234497,825.230042 
	C1408.626221,825.230042 1404.017944,825.230042 1399.187500,825.230042 
	C1399.187500,835.447266 1399.187500,844.997986 1399.187500,854.819458 
	C1405.717651,854.819458 1411.936035,854.819458 1418.770386,854.819458 
	C1418.770386,846.254211 1418.631958,837.975037 1418.834961,829.704224 
	C1418.922607,826.131653 1417.553589,824.806213 1413.234497,825.230042 
M1346.758179,825.230164 
	C1344.930298,826.078064 1341.556274,826.856323 1341.514404,827.784668 
	C1341.113281,836.690796 1341.274536,845.622253 1341.274536,854.817444 
	C1348.066406,854.817444 1354.270386,854.817444 1360.743652,854.817444 
	C1360.743652,844.966614 1360.743652,835.420959 1360.743652,825.230530 
	C1356.238770,825.230530 1351.969971,825.230530 1346.758179,825.230164 
M1417.114624,1028.958740 
	C1411.193115,1028.958740 1405.271729,1028.958740 1399.255615,1028.958740 
	C1399.255615,1038.953979 1399.255615,1048.317627 1399.255615,1057.746826 
	C1405.842529,1057.746826 1412.050903,1057.746826 1417.979126,1057.746826 
	C1417.979126,1048.002808 1417.979126,1038.634766 1417.114624,1028.958740 
M1361.008057,1037.546875 
	C1361.008057,1034.793091 1361.008057,1032.039185 1361.008057,1029.270020 
	C1354.096191,1029.270020 1347.905029,1029.270020 1341.623169,1029.270020 
	C1341.623169,1039.014771 1341.623169,1048.368164 1341.623169,1057.737549 
	C1348.215576,1057.737549 1354.417480,1057.737549 1361.008057,1057.737549 
	C1361.008057,1051.086670 1361.008057,1044.811768 1361.008057,1037.546875 
M1303.901123,1032.727051 
	C1303.057495,1031.452515 1302.278198,1029.131348 1301.359619,1029.074951 
	C1295.770386,1028.731689 1290.149536,1028.903564 1284.309326,1028.903564 
	C1284.309326,1038.852051 1284.309326,1048.234863 1284.309326,1057.812744 
	C1290.859253,1057.812744 1297.088867,1057.812744 1303.901733,1057.812744 
	C1303.901733,1049.574219 1303.901733,1041.626831 1303.901123,1032.727051 
M1178.148560,1061.263428 
	C1178.104126,1064.750854 1178.237427,1068.252075 1177.968628,1071.722168 
	C1177.654663,1075.776733 1179.675171,1077.023682 1183.298828,1076.985229 
	C1189.114746,1076.923462 1194.942139,1077.163208 1200.742065,1076.853149 
	C1202.496704,1076.759521 1205.213013,1075.636963 1205.671875,1074.341919 
	C1206.583496,1071.769043 1206.498169,1068.742310 1202.876343,1067.419067 
	C1197.771118,1065.553833 1194.747925,1061.845947 1194.022095,1056.410156 
	C1193.817139,1054.874756 1193.838989,1053.308838 1193.784546,1052.278931 
	C1188.571289,1055.095703 1183.549561,1057.809082 1178.148560,1061.263428 
M1358.247314,622.998352 
	C1352.791260,622.998352 1347.335083,622.998352 1341.595947,622.998352 
	C1341.595947,629.550781 1341.595947,635.597534 1341.595947,641.741211 
	C1348.175781,641.741211 1354.393066,641.741211 1360.990845,641.741211 
	C1360.990845,636.069580 1361.068237,630.765015 1360.910278,625.467468 
	C1360.885620,624.639648 1359.789917,623.843689 1358.247314,622.998352 
M2131.007324,1039.456177 
	C2131.007324,1035.192383 2131.007324,1030.928467 2131.007324,1026.464111 
	C2125.087891,1026.464111 2119.740479,1026.464111 2114.277100,1026.464111 
	C2114.277100,1033.714844 2114.277100,1040.595581 2114.277100,1047.656006 
	C2119.914795,1047.656006 2125.265137,1047.656006 2131.007324,1047.656006 
	C2131.007324,1045.015381 2131.007324,1042.723389 2131.007324,1039.456177 
M2041.328979,1048.008179 
	C2042.753296,1047.888672 2044.177490,1047.769287 2045.503906,1047.657959 
	C2045.503906,1040.274536 2045.503906,1033.375366 2045.503906,1026.443115 
	C2039.854858,1026.443115 2034.610718,1026.443115 2029.195557,1026.443115 
	C2029.195557,1033.691162 2029.195557,1040.591187 2029.195557,1048.008301 
	C2033.119385,1048.008301 2036.745605,1048.008301 2041.328979,1048.008179 
M1958.219360,1047.965576 
	C1958.836304,1047.335571 1959.976074,1046.716309 1959.989258,1046.073853 
	C1960.122192,1039.622925 1960.070312,1033.168213 1960.070312,1026.507080 
	C1954.186890,1026.507080 1948.826538,1026.507080 1943.472046,1026.507080 
	C1943.472046,1033.827148 1943.472046,1040.731201 1943.472046,1048.000854 
	C1948.318848,1048.000854 1952.794922,1048.000854 1958.219360,1047.965576 
M1950.544922,942.989380 
	C1948.150513,942.989380 1945.756104,942.989380 1943.370239,942.989380 
	C1943.370239,950.630554 1943.370239,957.372559 1943.370239,964.387573 
	C1949.000610,964.387573 1954.353149,964.387573 1959.749756,964.387573 
	C1959.749756,957.134827 1959.749756,950.266235 1959.749756,942.989502 
	C1956.763306,942.989502 1954.136353,942.989502 1950.544922,942.989380 
M2031.633057,942.988770 
	C2030.194336,943.091370 2028.755615,943.193970 2027.239380,943.302063 
	C2027.239380,950.523315 2027.239380,957.382507 2027.239380,964.303711 
	C2032.944946,964.303711 2038.282471,964.303711 2043.463135,964.303711 
	C2043.463135,956.969971 2043.463135,950.105042 2043.463135,942.989014 
	C2039.548218,942.989014 2036.073120,942.989014 2031.633057,942.988770 
M743.932190,1065.730469 
	C749.822876,1065.730469 755.713562,1065.730469 761.457153,1065.730469 
	C761.457153,1059.289917 761.457153,1053.420410 761.457153,1047.685913 
	C755.121399,1047.685913 749.247742,1047.685913 743.312988,1047.685913 
	C743.312988,1053.774780 743.312988,1059.409058 743.932190,1065.730469 
M694.230042,1058.450684 
	C694.230042,1060.864502 694.230042,1063.278198 694.230042,1065.645142 
	C700.908997,1065.645142 706.782593,1065.645142 713.013672,1065.645142 
	C713.013672,1062.324097 713.013733,1059.367920 713.013733,1056.411743 
	C713.013733,1053.498413 713.013672,1050.585205 713.013672,1047.230103 
	C709.669922,1047.230103 707.052979,1047.230103 704.436035,1047.230103 
	C694.228821,1047.230103 694.228821,1047.230103 694.230042,1058.450684 
M720.843750,972.144226 
	C720.242737,972.602661 719.128784,973.050232 719.118835,973.521179 
	C718.998352,979.221252 719.040771,984.924805 719.040771,990.601685 
	C725.388733,990.601685 730.956482,990.601685 736.818726,990.601685 
	C736.818726,984.439514 736.818726,978.576416 736.818726,972.106812 
	C731.625427,972.106812 726.702637,972.106812 720.843750,972.144226 
M916.989746,1057.516113 
	C914.360779,1059.163696 911.602966,1060.643555 909.154724,1062.526123 
	C907.834778,1063.541016 906.536987,1065.116333 906.142090,1066.670898 
	C905.627930,1068.694946 905.489685,1071.143799 906.186707,1073.044189 
	C906.764526,1074.619751 908.756348,1076.701538 910.174316,1076.742554 
	C913.718445,1076.845093 917.293457,1075.921997 920.848145,1075.359863 
	C920.941040,1075.345093 920.979187,1074.745239 920.979553,1074.418213 
	C920.986877,1067.561157 920.984985,1060.704102 920.984985,1052.705688 
	C919.291321,1054.792725 918.395081,1055.896973 916.989746,1057.516113 
z"/>
<path fill="#959595" opacity="1.000000" stroke="none" 
	d="
M1944.714111,870.627197 
	C1938.092529,869.232239 1931.520752,867.506531 1925.043823,865.477905 
	C1912.840454,861.655640 1900.696411,857.643677 1888.514893,853.750854 
	C1886.646484,853.153748 1884.709595,852.771362 1882.339355,852.172119 
	C1882.339355,904.954590 1882.339355,957.349548 1882.339355,1010.135986 
	C1878.210815,1006.240112 1874.887329,1002.154968 1870.707397,999.343323 
	C1859.557373,991.843445 1842.747681,993.325317 1832.744873,1003.845764 
	C1822.915527,1014.184082 1822.310791,1031.129272 1830.763062,1042.396118 
	C1834.847290,1047.840698 1840.141602,1051.201660 1846.431152,1053.208740 
	C1848.983887,1054.023315 1850.245605,1055.200317 1850.059326,1058.144653 
	C1849.775635,1062.625366 1849.776855,1067.150024 1850.050171,1071.631958 
	C1850.271851,1075.264526 1848.782227,1076.102173 1845.416870,1076.088135 
	C1819.425049,1075.979492 1793.432251,1075.971069 1767.440552,1076.095337 
	C1763.930054,1076.112183 1762.484131,1074.998047 1762.965576,1071.529541 
	C1763.010986,1071.202637 1763.001953,1070.860718 1762.966309,1070.531250 
	C1762.314575,1064.496094 1763.010254,1060.238159 1769.934204,1056.999634 
	C1781.073608,1051.789185 1783.308594,1041.741943 1781.667725,1031.871582 
	C1780.104126,1022.465271 1770.840088,1014.804626 1760.516968,1013.341553 
	C1751.850220,1012.113281 1740.904663,1018.777710 1737.321777,1027.464722 
	C1732.060547,1040.220825 1737.447388,1053.642212 1750.342529,1058.466675 
	C1754.348389,1059.965332 1755.152344,1061.970947 1755.076904,1065.762695 
	C1754.872925,1076.026367 1755.020630,1076.029297 1744.813599,1076.029297 
	C1733.650269,1076.029297 1722.486816,1076.031982 1711.323486,1076.028198 
	C1704.976685,1076.026001 1704.972656,1076.021240 1704.971558,1069.414307 
	C1704.969116,1053.252441 1704.861694,1037.089355 1705.050293,1020.929565 
	C1705.095215,1017.076111 1703.894775,1014.774109 1700.393311,1013.089600 
	C1695.308716,1010.643616 1690.500244,1007.630249 1685.481445,1005.038391 
	C1682.746826,1003.626160 1681.881348,1001.648499 1681.936523,998.621216 
	C1682.109497,989.127197 1682.139404,979.624146 1681.877075,970.134216 
	C1681.827393,968.337952 1680.646240,965.924866 1679.203857,964.912659 
	C1658.007935,950.037231 1636.679321,935.350830 1615.474365,920.056091 
	C1615.696533,917.515076 1615.938965,915.537598 1615.939819,913.559998 
	C1615.961060,866.293396 1615.969360,819.026733 1615.948975,771.760132 
	C1615.942017,755.453003 1615.851685,739.145874 1615.799316,722.838745 
	C1615.799316,686.732666 1615.799316,650.626587 1615.799316,613.921875 
	C1626.007812,613.921875 1635.729858,613.921875 1645.786499,613.921875 
	C1645.786499,601.780212 1645.786499,590.237732 1645.786499,578.258362 
	C1635.932861,578.258362 1626.331787,578.258362 1616.305908,578.258362 
	C1616.305908,571.462036 1616.305908,565.084167 1616.305908,558.349426 
	C1659.817505,558.349426 1703.366089,558.349426 1747.341797,558.349426 
	C1747.341797,634.497620 1747.341797,710.682495 1747.261597,787.769043 
	C1747.151611,819.829224 1747.169067,850.987854 1747.031128,882.145935 
	C1747.014282,885.952759 1748.486572,886.984741 1752.067871,886.964661 
	C1772.729004,886.848511 1793.391113,886.913025 1814.052979,886.892883 
	C1815.174194,886.891846 1816.295288,886.680420 1817.945312,886.513367 
	C1817.945312,853.492920 1817.945312,820.721252 1817.945312,787.949585 
	C1817.945312,731.663513 1817.945312,675.377380 1817.945312,618.490051 
	C1824.658691,618.490051 1831.052979,618.490051 1837.786621,618.490051 
	C1837.786621,608.173340 1837.786621,598.457458 1837.786621,588.304321 
	C1831.227051,588.304321 1824.955444,588.304321 1818.348022,588.304321 
	C1818.348022,581.473694 1818.348022,575.070496 1818.348022,568.331055 
	C1860.295654,568.331055 1902.188843,568.331055 1944.479004,568.331055 
	C1944.479004,574.690430 1944.479004,581.088379 1944.479004,588.291382 
	C1939.271362,588.291382 1934.029053,588.466309 1928.805542,588.230164 
	C1925.293701,588.071472 1924.122681,589.323547 1924.227295,592.817078 
	C1924.441528,599.973083 1924.457275,607.145569 1924.222046,614.300354 
	C1924.102295,617.939575 1925.549316,618.970764 1928.917480,618.754272 
	C1932.899292,618.498596 1936.928589,618.833435 1940.888794,618.433594 
	C1944.144165,618.104858 1945.182007,619.326965 1944.875977,622.305786 
	C1944.859009,622.470642 1944.874390,622.638733 1944.874390,622.805298 
	C1944.851807,705.256775 1944.829346,787.708252 1944.714111,870.627197 
z"/>
<path fill="#959595" opacity="1.000000" stroke="none" 
	d="
M953.136658,763.459106 
	C943.028320,764.211243 943.028381,764.211243 943.028381,774.181824 
	C943.028381,782.343445 942.752747,790.517944 943.132080,798.661926 
	C943.358643,803.526428 942.265015,805.764832 936.907104,805.108154 
	C932.968750,804.625488 928.915344,805.172546 924.928711,804.964172 
	C921.797729,804.800476 920.695801,806.076416 920.992065,809.048889 
	C921.123596,810.368286 921.012390,811.711731 921.012390,813.044250 
	C921.012390,884.833435 921.012329,956.622681 921.012268,1028.411865 
	C921.012268,1030.239624 921.012329,1032.067261 921.012329,1032.922485 
	C916.472473,1030.329834 911.887146,1026.790161 906.698669,1024.969116 
	C899.352539,1022.390625 890.736450,1026.558594 886.207642,1033.631470 
	C881.983337,1040.228638 882.128784,1049.990967 887.221008,1055.488159 
	C889.826721,1058.301025 893.250793,1060.710693 896.766296,1062.247192 
	C902.827759,1064.896118 899.380188,1069.724121 899.792664,1073.474487 
	C900.212402,1077.290527 896.587891,1075.937378 894.597534,1075.968262 
	C885.643616,1076.108032 876.686279,1076.029175 867.540588,1076.029175 
	C866.721252,1071.882202 866.068665,1068.965332 870.850098,1066.852539 
	C877.208069,1064.043091 879.872253,1055.944702 877.612488,1049.375977 
	C875.555237,1043.395996 868.270203,1039.798584 860.750427,1041.049438 
	C855.761780,1041.879150 850.186340,1048.490234 850.260986,1054.194214 
	C850.333374,1059.718872 852.942261,1064.575073 857.923462,1066.714233 
	C862.638245,1068.739014 862.403320,1071.587402 861.479492,1076.029297 
	C857.527710,1076.029297 853.588257,1076.029419 849.648865,1076.029297 
	C839.988159,1076.029053 830.322998,1075.860352 820.668823,1076.111694 
	C816.824097,1076.211670 815.786865,1074.866577 815.943298,1071.219727 
	C816.204468,1065.130981 816.014648,1059.022949 816.014648,1052.017700 
	C818.947266,1054.108521 821.156738,1055.683716 824.001038,1057.711548 
	C824.001038,1053.572510 824.642883,1049.831543 823.781494,1046.476562 
	C823.179871,1044.133301 820.758728,1042.038208 818.736816,1040.318604 
	C812.049683,1034.631714 805.175049,1029.165161 798.469971,1023.051025 
	C798.697449,1020.842529 798.940491,1019.196960 798.940796,1017.551453 
	C798.959167,928.301880 798.958252,839.052246 798.949524,749.802673 
	C798.949341,748.141174 798.833618,746.479614 798.771729,744.818115 
	C798.806335,725.821167 798.867859,706.824219 798.870789,687.827271 
	C798.882385,612.501587 798.875549,537.175964 798.875549,461.850281 
	C798.875549,459.857635 798.875610,457.864990 798.875610,455.271423 
	C806.814758,455.271423 814.543335,455.271423 822.834717,455.271423 
	C822.834717,440.955139 822.834717,427.221100 822.834717,412.708832 
	C828.643433,412.708832 833.904541,412.510803 839.142273,412.775543 
	C842.893555,412.965179 844.060425,411.649109 843.954041,407.915497 
	C843.707642,399.268616 843.875732,390.609955 843.875732,381.361023 
	C852.410461,381.361023 860.649109,381.361023 869.542847,381.361023 
	C869.542847,346.060791 869.542847,311.348816 869.542847,276.321655 
	C873.950378,276.321655 877.702148,276.321655 882.146240,276.321655 
	C882.146240,311.063782 882.146240,345.765320 882.146240,381.067444 
	C891.047546,381.067444 899.280823,381.067444 908.125183,381.067444 
	C908.125183,390.271790 908.341614,398.890778 908.033325,407.490997 
	C907.880798,411.745514 909.349609,413.032593 913.440552,412.782410 
	C918.395691,412.479340 923.383484,412.710510 928.958862,412.710510 
	C928.958862,426.848572 928.958862,440.582733 928.958862,454.806091 
	C937.131226,454.806091 944.716309,454.806091 953.132446,454.806091 
	C953.132446,557.867859 953.132446,660.432007 953.136658,763.459106 
z"/>
<path fill="#959595" opacity="1.000000" stroke="none" 
	d="
M1533.989014,966.176575 
	C1533.996826,977.338745 1534.146729,988.504456 1533.870239,999.659546 
	C1533.825073,1001.484131 1532.329346,1003.940979 1530.761719,1004.934570 
	C1525.999390,1007.952942 1520.967163,1010.598145 1515.853394,1012.989929 
	C1512.800781,1014.417664 1511.905640,1016.347717 1511.932861,1019.596008 
	C1512.076050,1036.754883 1511.879028,1053.916992 1512.089478,1071.074463 
	C1512.138550,1075.080322 1510.905762,1076.152588 1506.995728,1076.111816 
	C1489.004639,1075.923706 1471.009399,1075.928589 1453.018188,1076.108276 
	C1449.152466,1076.146851 1447.899048,1075.142212 1447.902344,1071.098022 
	C1448.005859,941.648071 1448.001099,812.197937 1447.917114,682.747925 
	C1447.914673,679.078491 1448.880127,677.335938 1452.667603,677.981873 
	C1457.290039,678.770142 1458.294800,676.579102 1458.101562,672.356140 
	C1457.781982,665.373474 1457.716187,658.348267 1458.120117,651.374329 
	C1458.387085,646.763550 1456.689819,645.786682 1452.432739,645.905579 
	C1442.111450,646.193787 1431.776123,646.045654 1421.447754,645.945007 
	C1419.963623,645.930542 1418.486450,645.205505 1417.011475,644.493713 
	C1416.383057,638.954773 1415.749146,633.731506 1415.058838,628.042847 
	C1426.579956,628.042847 1437.856201,628.042847 1449.692383,628.042847 
	C1450.100708,620.418396 1450.627075,613.193909 1450.850342,605.960083 
	C1451.718506,577.838196 1452.460938,549.712524 1453.308350,521.590027 
	C1453.919800,501.293365 1454.626343,480.999603 1455.285522,460.704376 
	C1456.290405,429.764404 1457.384033,398.826904 1458.244019,367.882874 
	C1458.552612,356.778595 1458.293579,345.658539 1458.293579,334.109314 
	C1458.612671,334.340515 1458.367310,334.013916 1458.088013,333.982025 
	C1449.594971,333.010315 1449.694092,332.994781 1447.979370,324.476044 
	C1444.175415,305.577484 1440.261353,286.701050 1436.269165,267.214722 
	C1444.742310,267.214722 1452.949829,267.214722 1461.753296,267.214722 
	C1463.079224,227.012161 1464.387329,187.350494 1465.713623,147.136505 
	C1470.379517,147.136505 1474.459717,147.136505 1478.825195,147.136505 
	C1478.825195,120.964508 1478.825195,95.369057 1478.825195,69.418510 
	C1477.180054,69.112595 1475.464722,68.793625 1473.138306,68.361008 
	C1473.138306,61.616714 1472.888428,54.820271 1473.343994,48.071457 
	C1473.437866,46.681751 1476.164307,45.469795 1477.677368,44.175911 
	C1478.159546,44.439659 1478.641602,44.703411 1479.123779,44.967163 
	C1479.123779,39.709961 1479.124023,34.452755 1479.123779,29.195551 
	C1479.123657,24.362482 1479.439697,19.502520 1479.032104,14.704034 
	C1478.639160,10.077575 1480.499634,8.798519 1484.745117,9.236195 
	C1487.506470,9.520864 1490.320923,9.289826 1493.715820,9.289826 
	C1493.715820,21.458023 1493.715820,33.026535 1493.715820,44.990192 
	C1499.715820,44.428955 1500.205933,47.691330 1499.950562,52.034546 
	C1499.638916,57.335617 1499.876465,62.668964 1499.876465,68.283371 
	C1497.926758,68.642349 1496.204102,68.959496 1494.186646,69.330933 
	C1494.186646,95.083603 1494.186646,120.810493 1494.186646,147.124512 
	C1497.385742,147.124512 1500.348999,147.279709 1503.288818,147.082169 
	C1506.416138,146.872009 1507.715088,147.829834 1507.777344,151.228867 
	C1508.100342,168.874115 1508.602539,186.516693 1509.140381,204.157227 
	C1509.754150,224.286102 1510.468506,244.411896 1511.152954,264.538574 
	C1511.174561,265.173096 1511.347534,265.802460 1511.530029,266.928711 
	C1519.895386,266.928711 1528.149658,266.928711 1536.918213,266.928711 
	C1533.360596,284.273926 1529.927856,301.011536 1526.494263,317.748962 
	C1525.792969,321.167480 1524.707275,324.559998 1524.478149,328.009613 
	C1524.163818,332.745148 1522.013794,334.466888 1517.467773,333.749573 
	C1516.525391,333.600830 1515.512451,333.898376 1513.545898,334.082642 
	C1516.738037,431.855560 1519.927612,529.550842 1523.136230,627.827759 
	C1534.865234,627.827759 1546.276489,627.827759 1558.461426,627.827759 
	C1556.801270,636.301514 1555.335449,644.078613 1553.747681,651.830688 
	C1549.178467,674.139709 1544.601196,696.447266 1539.875122,718.723267 
	C1539.535889,720.322388 1537.968628,721.661011 1536.111694,723.051880 
	C1532.319580,722.983093 1529.388062,722.983093 1525.984619,722.983093 
	C1526.333252,727.134094 1526.760620,730.554016 1526.885254,733.984863 
	C1527.596558,753.573425 1528.255005,773.164001 1528.894043,792.755127 
	C1529.587158,814.009766 1530.227661,835.266235 1530.912964,856.521179 
	C1531.560791,876.616150 1532.306030,896.708130 1532.878784,916.805115 
	C1533.347778,933.259460 1533.626221,949.719238 1533.989014,966.176575 
z"/>
<path fill="#959595" opacity="1.000000" stroke="none" 
	d="
M727.030090,921.802490 
	C712.165405,933.976318 697.297729,946.146484 682.438782,958.327393 
	C679.872864,960.430847 677.357239,962.595764 674.795044,964.703857 
	C669.585999,968.989807 673.102844,974.484802 672.917542,979.761292 
	C674.982300,978.322144 677.047058,976.882996 679.966919,974.847839 
	C679.966919,985.205383 680.054382,994.607971 679.852722,1004.004333 
	C679.828430,1005.139282 678.416260,1006.453857 677.352478,1007.325256 
	C662.990051,1019.091125 648.548462,1030.760376 634.225769,1042.574097 
	C633.102844,1043.500366 632.223755,1045.277832 632.091187,1046.737793 
	C631.780518,1050.160156 631.991943,1053.630005 631.991943,1057.791016 
	C634.801514,1055.823975 637.036194,1054.259399 639.967712,1052.206909 
	C639.967712,1059.728882 640.070007,1066.623535 639.839172,1073.507080 
	C639.810059,1074.373657 638.039795,1075.890991 637.056519,1075.907227 
	C626.395264,1076.082031 615.728516,1076.096558 605.068298,1075.892212 
	C604.028320,1075.872314 602.134644,1074.107300 602.128967,1073.143555 
	C601.968262,1046.008423 601.999756,1018.872131 601.999756,990.643005 
	C604.501892,992.369202 606.243835,993.570923 608.073547,994.833252 
	C610.343628,986.625427 609.427429,984.430969 603.497742,979.659302 
	C589.935913,968.746338 576.546021,957.619690 563.070496,946.599304 
	C562.316345,945.982544 561.418152,945.541931 560.242493,944.504395 
	C559.901550,906.501038 559.906250,869.012512 559.908264,831.524048 
	C559.909851,802.366333 559.866882,773.208496 559.993958,744.051331 
	C560.003113,741.944214 560.622192,739.197998 562.020691,737.859192 
	C566.205994,733.852478 570.731812,730.131104 575.473328,726.793518 
	C581.574219,722.499146 585.601074,717.570618 584.029907,709.516174 
	C583.560242,707.108582 584.219055,704.498291 583.903381,702.039612 
	C583.230286,696.796692 585.514465,693.620117 589.576782,690.361694 
	C593.919678,686.878174 599.306824,684.255249 600.997742,677.771729 
	C605.512878,660.459473 620.971985,645.683716 640.183899,645.777405 
	C644.824219,646.021973 649.602173,645.640198 654.080139,646.623840 
	C669.982239,650.117188 680.043579,660.505920 684.978821,675.554749 
	C686.776611,681.036499 689.566833,685.104736 694.135925,687.953979 
	C700.998657,692.233704 704.500061,697.835510 702.878296,706.077209 
	C700.861938,716.324341 704.963440,723.475891 713.735657,728.728638 
	C717.401611,730.923828 720.233398,734.470581 723.764343,736.946533 
	C726.457764,738.835022 727.431396,741.043701 727.014648,744.992920 
	C727.015686,804.515198 727.022888,863.158875 727.030090,921.802490 
z"/>
<path fill="#C9C9C9" opacity="1.000000" stroke="none" 
	d="
M1076.969971,804.978333 
	C1055.884888,804.978333 1034.799927,804.978333 1013.167603,804.978333 
	C1013.167603,791.276672 1013.167603,778.041931 1013.167603,764.023071 
	C1008.034546,764.023071 1003.438721,764.023071 998.374390,763.938477 
	C997.903625,658.910278 997.933838,553.966736 997.794922,449.023407 
	C997.788513,444.216766 999.075073,442.926941 1003.877991,442.942871 
	C1055.682861,443.114319 1107.488525,443.049835 1159.293945,443.049866 
	C1160.932983,443.049866 1162.572144,443.049866 1165.072021,443.049866 
	C1165.072021,518.676758 1165.072021,593.877563 1164.900879,669.859802 
	C1164.357666,670.970703 1164.027588,671.370728 1163.607788,671.619507 
	C1136.351562,687.778625 1109.138428,704.011719 1081.766357,719.972290 
	C1078.041992,722.144043 1076.890259,724.547913 1076.915771,728.670105 
	C1077.073242,754.105347 1076.979980,779.542053 1076.969971,804.978333 
z"/>
<path fill="#959595" opacity="1.000000" stroke="none" 
	d="
M535.014893,964.883789 
	C529.000732,970.052734 523.413879,975.869568 516.847107,980.200684 
	C510.785889,984.198486 511.974335,989.096375 512.441772,995.029297 
	C514.646423,993.656921 516.376953,992.579651 518.692749,991.138062 
	C518.840271,992.796875 519.016052,993.856262 519.016663,994.915771 
	C519.031921,1020.239014 518.968933,1045.562500 519.093933,1070.885132 
	C519.112122,1074.570557 518.432312,1076.211426 514.203857,1076.129272 
	C500.381256,1075.860840 486.548370,1075.905884 472.723541,1076.109253 
	C468.955536,1076.164673 467.453522,1074.980591 468.004364,1071.275269 
	C468.077057,1070.786133 468.074860,1070.268433 468.005066,1069.778564 
	C467.129425,1063.633179 468.362152,1059.565674 475.313690,1057.058472 
	C486.120850,1053.160767 489.030243,1039.790405 487.465607,1033.196289 
	C484.400421,1020.278076 476.516724,1014.581970 464.427338,1013.787415 
	C454.240387,1013.117920 443.393433,1021.567322 441.147858,1033.020996 
	C439.148865,1043.216919 445.122498,1054.173340 455.480835,1058.183228 
	C459.632294,1059.790283 460.179871,1062.418457 460.098969,1066.258667 
	C459.893188,1076.026367 460.033600,1076.107788 450.339600,1075.994873 
	C445.744720,1075.941406 439.710907,1077.158203 437.002106,1074.768921 
	C434.689056,1072.728638 436.039703,1066.356812 436.037659,1061.900879 
	C436.004547,989.596375 435.842926,917.290894 436.229034,844.988464 
	C436.277802,835.853271 434.268555,828.686707 427.876953,822.273804 
	C422.973602,817.354248 418.740082,811.767029 414.075684,806.154724 
	C413.942719,743.554321 413.942719,681.275940 413.942719,618.339417 
	C422.603577,618.339417 430.982300,618.339417 439.671936,618.339417 
	C439.671936,613.627197 439.671936,609.569153 439.671936,605.014221 
	C431.279663,605.014221 423.032104,605.014221 414.395630,605.014221 
	C414.395630,600.995667 414.395630,597.459778 414.395630,593.291626 
	C416.268738,593.291626 418.051514,593.291626 419.834259,593.291626 
	C449.812134,593.291626 479.790039,593.292847 509.767914,593.290466 
	C515.580811,593.290039 521.393677,593.275391 527.920410,593.441833 
	C530.562439,593.832153 532.490601,594.047974 534.665466,594.291382 
	C534.665466,597.808594 534.665466,601.142517 534.665466,605.030212 
	C532.185303,605.030212 530.077881,605.030212 527.507568,604.969360 
	C521.155151,604.908508 515.265625,604.908508 509.346008,604.908508 
	C509.346008,609.645630 509.346008,613.685974 509.346008,617.968811 
	C515.782043,617.968811 521.875732,617.968811 528.416565,617.995544 
	C530.788940,618.115173 532.714111,618.208130 535.014893,618.319153 
	C535.014893,734.208618 535.014893,849.546204 535.014893,964.883789 
z"/>
<path fill="#959595" opacity="1.000000" stroke="none" 
	d="
M1077.441162,804.990417 
	C1076.979980,779.542053 1077.073242,754.105347 1076.915771,728.670105 
	C1076.890259,724.547913 1078.041992,722.144043 1081.766357,719.972290 
	C1109.138428,704.011719 1136.351562,687.778625 1163.607788,671.619507 
	C1164.027588,671.370728 1164.357666,670.970703 1164.864380,670.328369 
	C1169.211792,667.727600 1173.599487,665.694519 1177.528809,662.994446 
	C1178.685791,662.199463 1178.936523,659.518250 1178.941772,657.699463 
	C1179.025024,629.223633 1179.000000,600.747559 1179.000000,572.271484 
	C1179.000000,570.463989 1179.000000,568.656433 1179.000000,566.487366 
	C1186.935059,566.487366 1194.501587,566.487366 1202.910400,566.487366 
	C1202.910400,648.343567 1202.910400,730.192932 1202.943359,812.976318 
	C1202.976440,852.563171 1202.976440,891.215881 1202.976440,929.868652 
	C1203.327271,929.875061 1203.677979,929.881409 1204.028809,929.887817 
	C1204.028809,925.431458 1204.028809,920.975037 1204.028809,916.244080 
	C1207.184692,916.244080 1209.755249,916.244080 1212.332764,916.244080 
	C1212.954590,918.556335 1213.206177,920.760132 1214.128662,922.633423 
	C1215.629517,925.681396 1216.882568,929.141968 1221.402954,929.073792 
	C1232.547485,928.905640 1243.694458,928.898376 1254.840454,928.826416 
	C1254.888184,976.636475 1254.936035,1024.446533 1254.983643,1072.256592 
	C1254.983765,1072.423218 1255.051147,1072.657227 1254.966919,1072.746094 
	C1253.922607,1073.849365 1252.870605,1075.861084 1251.792847,1075.878052 
	C1238.159668,1076.092651 1224.522095,1076.019165 1210.721191,1076.019165 
	C1209.526611,1071.765137 1209.194946,1068.930664 1214.134521,1066.707642 
	C1221.326294,1063.470947 1223.662598,1054.679077 1220.048706,1048.098633 
	C1216.303955,1041.280029 1208.275024,1038.856323 1201.145874,1042.411255 
	C1199.972778,1042.996216 1198.843506,1043.668823 1197.779907,1044.253540 
	C1197.527100,1040.055298 1197.594482,1035.879150 1196.965576,1031.810669 
	C1195.564331,1022.744141 1187.150879,1014.808960 1178.534546,1014.008545 
	C1166.134888,1012.856750 1156.770386,1017.901550 1152.917847,1027.808716 
	C1147.816284,1040.928101 1153.379639,1053.828125 1166.439087,1058.608032 
	C1169.090088,1059.578369 1170.013428,1060.848755 1170.087524,1063.611084 
	C1170.420410,1076.031372 1170.498047,1076.029419 1157.985840,1076.029297 
	C1141.659790,1076.029175 1125.332642,1075.920776 1109.008667,1076.108398 
	C1105.146729,1076.152710 1103.821289,1075.155273 1103.878662,1071.098267 
	C1104.104370,1055.108643 1104.121338,1039.111572 1103.872070,1023.122620 
	C1103.804443,1018.784424 1105.327637,1017.752258 1109.328125,1017.936829 
	C1115.645142,1018.228210 1121.987793,1017.914856 1128.315063,1018.056519 
	C1131.155762,1018.120178 1132.107666,1017.036987 1132.055786,1014.256775 
	C1131.925293,1007.262329 1131.878662,1000.260132 1132.073364,993.268616 
	C1132.163574,990.023438 1131.116943,988.847290 1127.810425,988.952698 
	C1121.319946,989.159546 1114.814697,988.886658 1108.322510,989.065857 
	C1105.190674,989.152283 1103.819458,988.320068 1103.906982,984.900330 
	C1104.111694,976.909180 1104.084473,968.906860 1103.916992,960.913940 
	C1103.851562,957.797485 1105.028320,956.868225 1108.007690,956.939026 
	C1114.667603,957.097351 1121.336548,956.874329 1127.996216,957.036987 
	C1130.996582,957.110229 1132.145630,956.143494 1132.068115,953.046265 
	C1131.893188,946.053772 1131.854614,939.048828 1132.079834,932.059204 
	C1132.192261,928.572571 1130.694092,927.868652 1127.620972,927.948669 
	C1121.128296,928.117981 1114.626343,927.907959 1108.131958,928.040649 
	C1105.303955,928.098450 1103.843994,927.461365 1103.914917,924.202087 
	C1104.092407,916.042908 1104.051758,907.876221 1103.930176,899.715027 
	C1103.888428,896.917725 1104.878052,895.873718 1107.696045,895.930481 
	C1114.357056,896.064819 1121.025879,895.844666 1127.684692,896.026306 
	C1130.842651,896.112427 1132.177002,895.230530 1132.077148,891.836609 
	C1131.866577,884.679382 1131.828979,877.504883 1132.089355,870.350891 
	C1132.224854,866.625977 1130.650391,865.875854 1127.371460,865.973633 
	C1121.046631,866.162292 1114.704834,865.846375 1108.384399,866.097778 
	C1104.781372,866.241089 1103.880493,864.863281 1103.908936,861.472290 
	C1104.047241,844.980835 1103.980591,828.487610 1103.965942,811.994995 
	C1103.959839,805.187744 1103.768921,805.020264 1096.904541,805.013367 
	C1090.573853,805.007019 1084.243042,805.005920 1077.441162,804.990417 
z"/>
<path fill="#C8C8C8" opacity="1.000000" stroke="none" 
	d="
M535.329712,964.783813 
	C535.014893,849.546204 535.014893,734.208618 535.014893,618.319153 
	C532.714111,618.208130 530.788940,618.115173 528.428345,617.535278 
	C527.985474,613.042236 527.977966,609.036255 527.970459,605.030212 
	C530.077881,605.030212 532.185303,605.030212 534.665466,605.030212 
	C534.665466,601.142517 534.665466,597.808594 534.665466,594.291382 
	C532.490601,594.047974 530.562439,593.832153 528.331421,593.370361 
	C528.028564,581.336487 528.028564,569.548584 528.028564,557.384033 
	C565.333374,557.384033 602.205872,557.384033 640.108032,557.384033 
	C640.108032,586.482605 640.108032,615.680542 640.145996,645.327942 
	C620.971985,645.683716 605.512878,660.459473 600.997742,677.771729 
	C599.306824,684.255249 593.919678,686.878174 589.576782,690.361694 
	C585.514465,693.620117 583.230286,696.796692 583.903381,702.039612 
	C584.219055,704.498291 583.560242,707.108582 584.029907,709.516174 
	C585.601074,717.570618 581.574219,722.499146 575.473328,726.793518 
	C570.731812,730.131104 566.205994,733.852478 562.020691,737.859192 
	C560.622192,739.197998 560.003113,741.944214 559.993958,744.051331 
	C559.866882,773.208496 559.909851,802.366333 559.908264,831.524048 
	C559.906250,869.012512 559.901550,906.501038 559.888977,944.449097 
	C551.801514,951.500366 543.723083,958.092102 535.329712,964.783813 
z"/>
<path fill="#C9C9C9" opacity="1.000000" stroke="none" 
	d="
M1534.343262,966.118164 
	C1533.626221,949.719238 1533.347778,933.259460 1532.878784,916.805115 
	C1532.306030,896.708130 1531.560791,876.616150 1530.912964,856.521179 
	C1530.227661,835.266235 1529.587158,814.009766 1528.894043,792.755127 
	C1528.255005,773.164001 1527.596558,753.573425 1526.885254,733.984863 
	C1526.760620,730.554016 1526.333252,727.134094 1525.984619,722.983093 
	C1529.388062,722.983093 1532.319580,722.983093 1535.720947,723.062378 
	C1539.577515,723.129333 1542.964478,723.078064 1546.350586,723.111145 
	C1567.270630,723.315247 1588.190308,723.560425 1609.110596,723.718506 
	C1611.074097,723.733276 1613.041382,723.237488 1615.403076,722.908691 
	C1615.851685,739.145874 1615.942017,755.453003 1615.948975,771.760132 
	C1615.969360,819.026733 1615.961060,866.293396 1615.939819,913.559998 
	C1615.938965,915.537598 1615.696533,917.515076 1615.265625,919.796204 
	C1606.567383,914.664185 1609.646851,914.568481 1601.472778,920.161987 
	C1580.681152,934.389771 1560.030151,948.822876 1539.312012,963.157959 
	C1537.819336,964.190796 1536.237793,965.095459 1534.343262,966.118164 
z"/>
<path fill="#959595" opacity="1.000000" stroke="none" 
	d="
M164.390289,865.812500 
	C164.889908,878.558044 164.975464,891.382141 164.979004,904.206299 
	C164.994324,959.507019 164.922638,1014.807983 165.094711,1070.108154 
	C165.109909,1074.990601 163.683273,1076.185425 158.946640,1076.137329 
	C135.629501,1075.900513 112.308601,1076.032227 88.502380,1075.563232 
	C88.015717,1063.516479 88.015717,1051.939941 88.015717,1040.258667 
	C83.590179,1040.048584 80.015236,1039.878906 76.419693,1039.708130 
	C76.419693,1033.607666 76.419693,1028.044922 76.419693,1021.892578 
	C80.353958,1021.892578 83.927711,1021.892578 87.533371,1021.892578 
	C87.533371,1010.602600 87.533371,999.918457 87.533371,988.894409 
	C84.583900,988.894409 82.049950,989.185242 79.634346,988.776489 
	C78.350494,988.559326 76.319099,987.190063 76.258774,986.237427 
	C75.927139,981.000244 76.100433,975.731079 76.100433,969.886963 
	C80.403854,969.886963 83.972824,969.886963 87.883316,969.886963 
	C87.883316,964.488098 87.883316,959.693237 87.883316,954.898376 
	C87.883316,949.111816 87.883316,943.325256 87.883316,937.000793 
	C84.002922,937.000793 80.428810,937.000793 76.495483,937.000793 
	C76.495483,930.574036 76.495483,924.676575 76.495483,918.163635 
	C79.971886,918.011475 83.537682,917.855469 87.549942,917.679810 
	C87.549942,906.633240 87.549942,895.624878 87.549942,884.107788 
	C83.981148,884.107788 80.399818,884.107788 76.476852,884.107788 
	C76.476852,878.041443 76.476852,872.463379 76.476852,865.891113 
	C105.572708,865.891113 134.755615,865.891113 164.390289,865.812500 
z"/>
<path fill="#C9C9C9" opacity="1.000000" stroke="none" 
	d="
M727.391296,921.844849 
	C727.022888,863.158875 727.015686,804.515198 727.046509,745.398071 
	C750.683167,744.933655 774.281982,744.942810 798.326294,744.885010 
	C798.833618,746.479614 798.949341,748.141174 798.949524,749.802673 
	C798.958252,839.052246 798.959167,928.301880 798.940796,1017.551453 
	C798.940491,1019.196960 798.697449,1020.842529 798.267090,1022.791382 
	C791.413330,1017.732727 784.808777,1012.431152 778.355713,1006.951233 
	C777.241821,1006.005249 776.135376,1004.316101 776.105591,1002.946716 
	C775.907349,993.834961 776.002808,984.716797 776.002808,974.688782 
	C778.849060,976.635620 781.040405,978.134521 783.642578,979.914490 
	C784.837219,972.083496 784.218994,966.348938 777.185120,961.100769 
	C761.364563,949.296448 746.453552,936.274048 731.140076,923.787109 
	C730.151672,922.981140 728.888062,922.512695 727.391296,921.844849 
z"/>
<path fill="#C9C9C9" opacity="1.000000" stroke="none" 
	d="
M2044.947998,902.644287 
	C2030.340210,898.627869 2015.775024,894.170654 2001.235840,889.630188 
	C1993.328247,887.160645 1985.464600,884.549805 1977.213623,881.859009 
	C1976.880859,852.740295 1977.033813,823.764404 1976.835815,794.790894 
	C1976.802246,789.877502 1978.294678,788.724976 1983.007935,788.790466 
	C2001.988525,789.054077 2020.975586,788.984741 2039.958496,788.827332 
	C2043.714966,788.796143 2045.161621,789.619507 2045.141357,793.759949 
	C2044.964600,829.895630 2045.017090,866.032288 2044.947998,902.644287 
z"/>
<path fill="#C8C8C8" opacity="1.000000" stroke="none" 
	d="
M1817.483643,788.006348 
	C1817.945312,820.721252 1817.945312,853.492920 1817.945312,886.513367 
	C1816.295288,886.680420 1815.174194,886.891846 1814.052979,886.892883 
	C1793.391113,886.913025 1772.729004,886.848511 1752.067871,886.964661 
	C1748.486572,886.984741 1747.014282,885.952759 1747.031128,882.145935 
	C1747.169067,850.987854 1747.151611,819.829224 1747.306396,788.188538 
	C1755.872559,787.838867 1764.313721,788.055115 1772.755371,788.085327 
	C1787.510742,788.138123 1802.266479,788.076721 1817.483643,788.006348 
z"/>
<path fill="#C9C9C9" opacity="1.000000" stroke="none" 
	d="
M1254.866821,928.373657 
	C1243.694458,928.898376 1232.547485,928.905640 1221.402954,929.073792 
	C1216.882568,929.141968 1215.629517,925.681396 1214.128662,922.633423 
	C1213.206177,920.760132 1212.954590,918.556335 1212.332764,916.244080 
	C1209.755249,916.244080 1207.184692,916.244080 1204.028809,916.244080 
	C1204.028809,920.975037 1204.028809,925.431458 1204.028809,929.887817 
	C1203.677979,929.881409 1203.327271,929.875061 1202.976440,929.868652 
	C1202.976440,891.215881 1202.976440,852.563171 1203.004150,813.439758 
	C1219.953979,812.950806 1236.876099,812.932556 1254.241699,812.870117 
	C1254.760498,829.265503 1254.875854,845.704956 1254.901367,862.144531 
	C1254.935181,884.069885 1254.899170,905.995422 1254.866821,928.373657 
z"/>
<path fill="#C9C9C9" opacity="1.000000" stroke="none" 
	d="
M87.424927,954.934570 
	C87.883316,959.693237 87.883316,964.488098 87.883316,969.886963 
	C83.972824,969.886963 80.403854,969.886963 76.100433,969.886963 
	C76.100433,975.731079 75.927139,981.000244 76.258774,986.237427 
	C76.319099,987.190063 78.350494,988.559326 79.634346,988.776489 
	C82.049950,989.185242 84.583900,988.894409 87.533371,988.894409 
	C87.533371,999.918457 87.533371,1010.602600 87.533371,1021.892578 
	C83.927711,1021.892578 80.353958,1021.892578 76.419693,1021.892578 
	C76.419693,1028.044922 76.419693,1033.607666 76.419693,1039.708130 
	C80.015236,1039.878906 83.590179,1040.048584 88.015717,1040.258667 
	C88.015717,1051.939941 88.015717,1063.516479 88.037445,1075.564697 
	C73.270897,1076.221558 58.482613,1076.406738 43.356209,1076.369629 
	C43.018093,1036.065552 43.018093,995.983643 43.018093,954.970764 
	C57.862587,954.970764 72.414558,954.970764 87.424927,954.934570 
z"/>
<path fill="#D6D6D6" opacity="1.000000" stroke="none" 
	d="
M380.634674,928.533813 
	C376.511230,929.325012 372.483917,929.795654 368.443634,929.977112 
	C364.640228,930.147888 360.823151,930.013672 356.310669,930.013672 
	C356.310669,921.939148 356.233734,914.183594 356.433167,906.435181 
	C356.452515,905.684204 358.163452,904.377502 359.121155,904.347351 
	C365.270020,904.153992 371.439514,904.050415 377.572235,904.417664 
	C378.707367,904.485657 380.561798,906.792297 380.622986,908.132385 
	C380.926239,914.771667 380.739319,921.433289 380.634674,928.533813 
z"/>
<path fill="#D6D6D6" opacity="1.000000" stroke="none" 
	d="
M298.035400,930.013672 
	C294.730560,930.013733 291.917236,930.013733 288.298370,930.013733 
	C288.298370,922.005188 288.204865,914.273438 288.438385,906.551575 
	C288.462585,905.751343 290.408356,904.385193 291.501495,904.345093 
	C297.477234,904.126099 303.474182,904.070007 309.441223,904.385681 
	C310.598419,904.446899 312.565918,906.367920 312.610596,907.492615 
	C312.899414,914.759521 312.758484,922.043518 312.758484,930.013672 
	C307.704651,930.013672 303.115784,930.013672 298.035400,930.013672 
z"/>
<path fill="#D6D6D6" opacity="1.000000" stroke="none" 
	d="
M244.037476,904.973145 
	C244.349884,913.233826 244.349884,921.179932 244.349884,929.570312 
	C236.590042,929.570312 228.744141,929.570312 220.280380,929.570312 
	C220.280380,921.929626 220.183990,914.324890 220.414078,906.730103 
	C220.440033,905.873352 222.300034,904.371277 223.323822,904.359009 
	C230.122070,904.277649 236.924194,904.520935 244.037476,904.973145 
z"/>
<path fill="#959595" opacity="1.000000" stroke="none" 
	d="
M1859.029297,1069.852539 
	C1859.029297,1069.208984 1859.040527,1069.041992 1859.027832,1068.876709 
	C1858.384521,1060.520996 1857.695190,1052.938354 1869.244263,1050.355469 
	C1873.991577,1049.293823 1877.644531,1043.338745 1882.014648,1039.412476 
	C1882.014648,1043.435547 1882.014771,1047.918823 1882.014526,1052.401978 
	C1882.014160,1058.885132 1881.852417,1065.373657 1882.074829,1071.849243 
	C1882.203491,1075.592285 1880.542236,1076.979736 1877.096313,1076.970581 
	C1871.340942,1076.955200 1865.585571,1076.966309 1859.334839,1076.966309 
	C1859.191772,1073.861084 1859.110474,1072.095459 1859.029297,1069.852539 
z"/>
<path fill="#D6D6D6" opacity="1.000000" stroke="none" 
	d="
M224.225006,981.877930 
	C231.156891,981.877136 237.615494,981.877136 244.417908,981.877136 
	C244.417908,990.403564 244.417908,998.443970 244.417908,1006.750000 
	C236.395554,1006.750000 228.655457,1006.750000 220.259140,1006.750000 
	C220.259140,999.125305 220.149124,991.686523 220.412582,984.261047 
	C220.442123,983.428528 222.587524,982.671082 224.225006,981.877930 
z"/>
<path fill="#D6D6D6" opacity="1.000000" stroke="none" 
	d="
M288.230255,989.104736 
	C288.230469,986.649292 288.230469,984.678589 288.230469,982.297852 
	C296.495087,982.297852 304.330017,982.297852 312.470795,982.297852 
	C312.470795,990.409241 312.470795,998.317505 312.470795,1006.621155 
	C304.502350,1006.621155 296.658813,1006.621155 288.230042,1006.621155 
	C288.230042,1000.813232 288.230042,995.201355 288.230255,989.104736 
z"/>
<path fill="#D6D6D6" opacity="1.000000" stroke="none" 
	d="
M380.769714,994.005981 
	C380.769501,998.455261 380.769501,1002.410828 380.769501,1006.682861 
	C372.512848,1006.682861 364.774078,1006.682861 356.630188,1006.682861 
	C356.630188,998.653381 356.630188,990.617188 356.630188,982.226868 
	C364.494202,982.226868 372.225708,982.226868 380.769958,982.226868 
	C380.769958,986.000610 380.769958,989.756470 380.769714,994.005981 
z"/>
<path fill="#D8D8D8" opacity="1.000000" stroke="none" 
	d="
M1294.970459,960.991821 
	C1298.075439,960.991821 1300.691162,960.991821 1303.600586,960.991821 
	C1303.600586,971.091125 1303.600586,980.645874 1303.600586,990.552124 
	C1297.194946,990.552124 1290.970825,990.552124 1284.366943,990.552124 
	C1284.366943,980.942200 1284.366943,971.382446 1284.366943,960.991821 
	C1287.660522,960.991821 1291.070923,960.991821 1294.970459,960.991821 
z"/>
<path fill="#D7D7D7" opacity="1.000000" stroke="none" 
	d="
M1355.859375,960.989380 
	C1357.773071,961.094666 1359.204834,961.199890 1360.734863,961.312317 
	C1360.734863,971.229553 1360.734863,980.768555 1360.734863,990.604980 
	C1354.263062,990.604980 1348.066406,990.604980 1341.552002,990.604980 
	C1341.552002,980.808167 1341.552002,971.275879 1341.552002,960.989319 
	C1346.238770,960.989319 1350.808105,960.989319 1355.859375,960.989380 
z"/>
<path fill="#D7D7D7" opacity="1.000000" stroke="none" 
	d="
M1408.020508,990.904541 
	C1404.903687,990.904419 1402.275269,990.904419 1399.269287,990.904419 
	C1399.269287,980.931396 1399.269287,971.386108 1399.269287,961.413208 
	C1405.481201,961.413208 1411.820068,961.413208 1418.464966,961.413208 
	C1418.464966,971.102417 1418.464966,980.646240 1418.464966,990.904602 
	C1415.025757,990.904602 1411.767334,990.904602 1408.020508,990.904541 
z"/>
<path fill="#D7D7D7" opacity="1.000000" stroke="none" 
	d="
M1418.239746,922.342102 
	C1411.843262,922.691895 1405.736572,922.691895 1399.255615,922.691895 
	C1399.255615,913.065674 1399.255615,903.517090 1399.255615,893.529785 
	C1405.399658,893.529785 1411.615845,893.529785 1418.529663,893.529785 
	C1418.529663,902.913391 1418.529663,912.452820 1418.239746,922.342102 
z"/>
<path fill="#D8D8D8" opacity="1.000000" stroke="none" 
	d="
M1295.944824,923.008301 
	C1291.837769,923.008240 1288.215576,923.008240 1284.299316,923.008240 
	C1284.299316,912.962036 1284.299316,903.399719 1284.299316,893.466370 
	C1290.612061,893.466370 1296.840942,893.466370 1303.489014,893.466370 
	C1303.489014,903.002747 1303.489014,912.556213 1303.489014,923.008301 
	C1301.232788,923.008301 1298.831299,923.008301 1295.944824,923.008301 
z"/>
<path fill="#D8D8D8" opacity="1.000000" stroke="none" 
	d="
M1293.997070,719.900879 
	C1290.556274,719.900879 1287.600830,719.900879 1284.322144,719.900879 
	C1284.322144,709.850464 1284.322144,700.291443 1284.322144,690.360474 
	C1290.581177,690.360474 1296.817505,690.360474 1303.481445,690.360474 
	C1303.481445,699.950073 1303.481445,709.626404 1303.481445,719.900818 
	C1300.370728,719.900818 1297.426636,719.900818 1293.997070,719.900879 
z"/>
<path fill="#D7D7D7" opacity="1.000000" stroke="none" 
	d="
M1361.010376,714.833557 
	C1360.934448,716.612854 1360.858521,717.912598 1360.762817,719.550537 
	C1354.380493,719.550537 1348.179565,719.550537 1341.604492,719.550537 
	C1341.604492,709.931702 1341.604492,700.399109 1341.604492,690.426025 
	C1347.765869,690.426025 1353.961792,690.426025 1361.010498,690.426025 
	C1361.010498,698.264404 1361.010498,706.309204 1361.010376,714.833557 
z"/>
<path fill="#D7D7D7" opacity="1.000000" stroke="none" 
	d="
M1398.879883,704.999878 
	C1398.879761,699.886108 1398.879761,695.271118 1398.879761,690.326355 
	C1405.557739,690.326355 1411.781982,690.326355 1418.388550,690.326355 
	C1418.388550,699.906799 1418.388550,709.453003 1418.388550,719.454224 
	C1412.116333,719.454224 1405.792969,719.454224 1398.880005,719.454224 
	C1398.880005,714.701782 1398.880005,710.100159 1398.879883,704.999878 
z"/>
<path fill="#D8D8D8" opacity="1.000000" stroke="none" 
	d="
M1290.095947,757.882324 
	C1294.719727,757.882141 1298.859619,757.882141 1303.449097,757.882141 
	C1303.449097,767.829285 1303.449097,777.477051 1303.449097,787.445923 
	C1297.114624,787.445923 1290.897827,787.445923 1284.334717,787.445923 
	C1284.334717,777.729431 1284.334717,768.194702 1284.334717,758.119629 
	C1286.102417,758.040161 1287.857178,757.961304 1290.095947,757.882324 
z"/>
<path fill="#D8D8D8" opacity="1.000000" stroke="none" 
	d="
M1303.900879,845.950500 
	C1303.900879,849.070557 1303.900879,851.698120 1303.900879,854.719910 
	C1297.273438,854.719910 1291.055786,854.719910 1284.410889,854.719910 
	C1284.410889,845.184692 1284.410889,835.521729 1284.410889,825.546875 
	C1290.756348,825.546875 1296.974976,825.546875 1303.901001,825.546875 
	C1303.901001,832.305786 1303.901001,838.881897 1303.900879,845.950500 
z"/>
<path fill="#D7D7D7" opacity="1.000000" stroke="none" 
	d="
M1354.879150,893.095459 
	C1356.991577,893.095581 1358.624390,893.095581 1360.628540,893.095581 
	C1360.628540,903.148621 1360.628540,912.802551 1360.628540,922.735168 
	C1354.254883,922.735168 1348.052734,922.735168 1341.542725,922.735168 
	C1341.542725,912.928406 1341.542725,903.394470 1341.542725,893.095398 
	C1345.923218,893.095398 1350.161377,893.095398 1354.879150,893.095459 
z"/>
<path fill="#D6D6D6" opacity="1.000000" stroke="none" 
	d="
M1413.826416,757.877075 
	C1417.243042,757.540527 1418.956421,758.202454 1418.839355,761.811829 
	C1418.602051,769.123901 1418.896484,776.453430 1418.650635,783.764954 
	C1418.605347,785.112244 1417.114624,787.489929 1416.172241,787.550781 
	C1410.591431,787.911133 1404.975342,787.728577 1399.133057,787.728577 
	C1399.133057,777.653564 1399.133057,768.220337 1399.133057,757.877075 
	C1403.865112,757.877075 1408.607178,757.877075 1413.826416,757.877075 
z"/>
<path fill="#D6D6D6" opacity="1.000000" stroke="none" 
	d="
M1361.013550,765.077515 
	C1361.013550,772.697693 1361.013550,779.826477 1361.013550,787.695618 
	C1354.973511,787.695618 1349.227051,787.799683 1343.493530,787.573547 
	C1342.712280,787.542664 1341.365479,785.874084 1341.347900,784.943604 
	C1341.182861,776.177429 1341.249878,767.406860 1341.249878,758.261597 
	C1347.910645,758.261597 1354.108887,758.261597 1361.013550,758.261597 
	C1361.013550,760.397278 1361.013550,762.491699 1361.013550,765.077515 
z"/>
<path fill="#D6D6D6" opacity="1.000000" stroke="none" 
	d="
M1413.696777,825.230469 
	C1417.553589,824.806213 1418.922607,826.131653 1418.834961,829.704224 
	C1418.631958,837.975037 1418.770386,846.254211 1418.770386,854.819458 
	C1411.936035,854.819458 1405.717651,854.819458 1399.187500,854.819458 
	C1399.187500,844.997986 1399.187500,835.447266 1399.187500,825.230042 
	C1404.017944,825.230042 1408.626221,825.230042 1413.696777,825.230469 
z"/>
<path fill="#D6D6D6" opacity="1.000000" stroke="none" 
	d="
M1347.229736,825.230347 
	C1351.969971,825.230530 1356.238770,825.230530 1360.743652,825.230530 
	C1360.743652,835.420959 1360.743652,844.966614 1360.743652,854.817444 
	C1354.270386,854.817444 1348.066406,854.817444 1341.274536,854.817444 
	C1341.274536,845.622253 1341.113281,836.690796 1341.514404,827.784668 
	C1341.556274,826.856323 1344.930298,826.078064 1347.229736,825.230347 
z"/>
<path fill="#D8D8D8" opacity="1.000000" stroke="none" 
	d="
M1417.546875,1029.112793 
	C1417.979126,1038.634766 1417.979126,1048.002808 1417.979126,1057.746826 
	C1412.050903,1057.746826 1405.842529,1057.746826 1399.255615,1057.746826 
	C1399.255615,1048.317627 1399.255615,1038.953979 1399.255615,1028.958740 
	C1405.271729,1028.958740 1411.193115,1028.958740 1417.546875,1029.112793 
z"/>
<path fill="#D8D8D8" opacity="1.000000" stroke="none" 
	d="
M1361.008057,1038.041748 
	C1361.008057,1044.811768 1361.008057,1051.086670 1361.008057,1057.737549 
	C1354.417480,1057.737549 1348.215576,1057.737549 1341.623169,1057.737549 
	C1341.623169,1048.368164 1341.623169,1039.014771 1341.623169,1029.270020 
	C1347.905029,1029.270020 1354.096191,1029.270020 1361.008057,1029.270020 
	C1361.008057,1032.039185 1361.008057,1034.793091 1361.008057,1038.041748 
z"/>
<path fill="#D8D8D8" opacity="1.000000" stroke="none" 
	d="
M1303.901367,1033.203369 
	C1303.901733,1041.626831 1303.901733,1049.574219 1303.901733,1057.812744 
	C1297.088867,1057.812744 1290.859253,1057.812744 1284.309326,1057.812744 
	C1284.309326,1048.234863 1284.309326,1038.852051 1284.309326,1028.903564 
	C1290.149536,1028.903564 1295.770386,1028.731689 1301.359619,1029.074951 
	C1302.278198,1029.131348 1303.057495,1031.452515 1303.901367,1033.203369 
z"/>
<path fill="#959595" opacity="1.000000" stroke="none" 
	d="
M1178.338257,1060.892822 
	C1183.549561,1057.809082 1188.571289,1055.095703 1193.784546,1052.278931 
	C1193.838989,1053.308838 1193.817139,1054.874756 1194.022095,1056.410156 
	C1194.747925,1061.845947 1197.771118,1065.553833 1202.876343,1067.419067 
	C1206.498169,1068.742310 1206.583496,1071.769043 1205.671875,1074.341919 
	C1205.213013,1075.636963 1202.496704,1076.759521 1200.742065,1076.853149 
	C1194.942139,1077.163208 1189.114746,1076.923462 1183.298828,1076.985229 
	C1179.675171,1077.023682 1177.654663,1075.776733 1177.968628,1071.722168 
	C1178.237427,1068.252075 1178.104126,1064.750854 1178.338257,1060.892822 
z"/>
<path fill="#D8D8D8" opacity="1.000000" stroke="none" 
	d="
M1358.718384,623.015625 
	C1359.789917,623.843689 1360.885620,624.639648 1360.910278,625.467468 
	C1361.068237,630.765015 1360.990845,636.069580 1360.990845,641.741211 
	C1354.393066,641.741211 1348.175781,641.741211 1341.595947,641.741211 
	C1341.595947,635.597534 1341.595947,629.550781 1341.595947,622.998352 
	C1347.335083,622.998352 1352.791260,622.998352 1358.718384,623.015625 
z"/>
<path fill="#D8D8D8" opacity="1.000000" stroke="none" 
	d="
M2131.007324,1039.943848 
	C2131.007324,1042.723389 2131.007324,1045.015381 2131.007324,1047.656006 
	C2125.265137,1047.656006 2119.914795,1047.656006 2114.277100,1047.656006 
	C2114.277100,1040.595581 2114.277100,1033.714844 2114.277100,1026.464111 
	C2119.740479,1026.464111 2125.087891,1026.464111 2131.007324,1026.464111 
	C2131.007324,1030.928467 2131.007324,1035.192383 2131.007324,1039.943848 
z"/>
<path fill="#D8D8D8" opacity="1.000000" stroke="none" 
	d="
M2040.850342,1048.008301 
	C2036.745605,1048.008301 2033.119385,1048.008301 2029.195557,1048.008301 
	C2029.195557,1040.591187 2029.195557,1033.691162 2029.195557,1026.443115 
	C2034.610718,1026.443115 2039.854858,1026.443115 2045.503906,1026.443115 
	C2045.503906,1033.375366 2045.503906,1040.274536 2045.503906,1047.657959 
	C2044.177490,1047.769287 2042.753296,1047.888672 2040.850342,1048.008301 
z"/>
<path fill="#D8D8D8" opacity="1.000000" stroke="none" 
	d="
M1957.745117,1047.983154 
	C1952.794922,1048.000854 1948.318848,1048.000854 1943.472046,1048.000854 
	C1943.472046,1040.731201 1943.472046,1033.827148 1943.472046,1026.507080 
	C1948.826538,1026.507080 1954.186890,1026.507080 1960.070312,1026.507080 
	C1960.070312,1033.168213 1960.122192,1039.622925 1959.989258,1046.073853 
	C1959.976074,1046.716309 1958.836304,1047.335571 1957.745117,1047.983154 
z"/>
<path fill="#D7D7D7" opacity="1.000000" stroke="none" 
	d="
M1951.027222,942.989441 
	C1954.136353,942.989502 1956.763306,942.989502 1959.749756,942.989502 
	C1959.749756,950.266235 1959.749756,957.134827 1959.749756,964.387573 
	C1954.353149,964.387573 1949.000610,964.387573 1943.370239,964.387573 
	C1943.370239,957.372559 1943.370239,950.630554 1943.370239,942.989380 
	C1945.756104,942.989380 1948.150513,942.989380 1951.027222,942.989441 
z"/>
<path fill="#D7D7D7" opacity="1.000000" stroke="none" 
	d="
M2032.115601,942.988892 
	C2036.073120,942.989014 2039.548218,942.989014 2043.463135,942.989014 
	C2043.463135,950.105042 2043.463135,956.969971 2043.463135,964.303711 
	C2038.282471,964.303711 2032.944946,964.303711 2027.239380,964.303711 
	C2027.239380,957.382507 2027.239380,950.523315 2027.239380,943.302063 
	C2028.755615,943.193970 2030.194336,943.091370 2032.115601,942.988892 
z"/>
<path fill="#D6D6D6" opacity="1.000000" stroke="none" 
	d="
M743.622559,1065.386963 
	C743.312988,1059.409058 743.312988,1053.774780 743.312988,1047.685913 
	C749.247742,1047.685913 755.121399,1047.685913 761.457153,1047.685913 
	C761.457153,1053.420410 761.457153,1059.289917 761.457153,1065.730469 
	C755.713562,1065.730469 749.822876,1065.730469 743.622559,1065.386963 
z"/>
<path fill="#D6D6D6" opacity="1.000000" stroke="none" 
	d="
M694.230225,1057.973633 
	C694.228821,1047.230103 694.228821,1047.230103 704.436035,1047.230103 
	C707.052979,1047.230103 709.669922,1047.230103 713.013672,1047.230103 
	C713.013672,1050.585205 713.013733,1053.498413 713.013733,1056.411743 
	C713.013733,1059.367920 713.013672,1062.324097 713.013672,1065.645142 
	C706.782593,1065.645142 700.908997,1065.645142 694.230042,1065.645142 
	C694.230042,1063.278198 694.230042,1060.864502 694.230225,1057.973633 
z"/>
<path fill="#D8D8D8" opacity="1.000000" stroke="none" 
	d="
M721.311768,972.125488 
	C726.702637,972.106812 731.625427,972.106812 736.818726,972.106812 
	C736.818726,978.576416 736.818726,984.439514 736.818726,990.601685 
	C730.956482,990.601685 725.388733,990.601685 719.040771,990.601685 
	C719.040771,984.924805 718.998352,979.221252 719.118835,973.521179 
	C719.128784,973.050232 720.242737,972.602661 721.311768,972.125488 
z"/>
<path fill="#959595" opacity="1.000000" stroke="none" 
	d="
M917.244324,1057.258789 
	C918.395081,1055.896973 919.291321,1054.792725 920.984985,1052.705688 
	C920.984985,1060.704102 920.986877,1067.561157 920.979553,1074.418213 
	C920.979187,1074.745239 920.941040,1075.345093 920.848145,1075.359863 
	C917.293457,1075.921997 913.718445,1076.845093 910.174316,1076.742554 
	C908.756348,1076.701538 906.764526,1074.619751 906.186707,1073.044189 
	C905.489685,1071.143799 905.627930,1068.694946 906.142090,1066.670898 
	C906.536987,1065.116333 907.834778,1063.541016 909.154724,1062.526123 
	C911.602966,1060.643555 914.360779,1059.163696 917.244324,1057.258789 
z"/>
<path fill="#FFFFFF" opacity="1.000000" stroke="none" 
	d="
M527.507568,604.969360 
	C527.977966,609.036255 527.985474,613.042236 527.981140,617.508545 
	C521.875732,617.968811 515.782043,617.968811 509.346008,617.968811 
	C509.346008,613.685974 509.346008,609.645630 509.346008,604.908508 
	C515.265625,604.908508 521.155151,604.908508 527.507568,604.969360 
z"/>
</svg>